<svg width="52" height="52" viewBox="0 0 52 52" fill="none" xmlns="http://www.w3.org/2000/svg">
<g clip-path="url(#clip0_134_1242)">
<path d="M22.9531 0.25H29.0469C29.7501 0.25 30.3203 0.820165 30.3203 1.52344V3.29688H43.2979L43.3574 3.13086C43.9521 1.45398 45.5531 0.25 47.4297 0.25C49.8117 0.25 51.75 2.18831 51.75 4.57031C51.75 6.95231 49.8117 8.89062 47.4297 8.89062C45.5531 8.89062 43.9521 7.68665 43.3574 6.00977L43.2979 5.84375H35.7061L36.4424 6.30566C42.1851 9.90861 45.6562 16.1587 45.6562 22.8516C45.6562 23.5548 45.0861 24.125 44.3828 24.125C43.6795 24.125 43.1094 23.5548 43.1094 22.8516C43.1094 15.1381 37.9628 8.52104 30.6377 6.48047L30.3203 6.3916V7.61719C30.3203 8.32046 29.7501 8.89062 29.0469 8.89062H22.9531C22.2499 8.89062 21.6797 8.32046 21.6797 7.61719V6.3916L21.3623 6.48047C14.0372 8.52104 8.89062 15.1381 8.89062 22.8516C8.89062 23.5548 8.32046 24.125 7.61719 24.125C6.91391 24.125 6.34375 23.5548 6.34375 22.8516C6.34375 16.1533 9.81729 9.90717 15.5576 6.30469L16.2939 5.84277H8.70215L8.64258 6.00879C8.04784 7.68668 6.44685 8.89062 4.57031 8.89062C2.18831 8.89062 0.25 6.95231 0.25 4.57031C0.25 2.18831 2.18831 0.25 4.57031 0.25C6.44688 0.25 8.04786 1.45398 8.64258 3.13086L8.70215 3.29688H21.6797V1.52344C21.6797 0.820165 22.2499 0.25 22.9531 0.25ZM4.57031 2.79688C3.59222 2.79688 2.79688 3.59222 2.79688 4.57031C2.79688 5.54841 3.59222 6.34375 4.57031 6.34375C5.54841 6.34375 6.34375 5.54841 6.34375 4.57031C6.34375 3.59222 5.54841 2.79688 4.57031 2.79688ZM24.2266 6.34375H27.7734V2.79688H24.2266V6.34375ZM47.4297 2.79688C46.4516 2.79688 45.6562 3.59222 45.6562 4.57031C45.6562 5.54841 46.4516 6.34375 47.4297 6.34375C48.4078 6.34375 49.2031 5.54841 49.2031 4.57031C49.2031 3.59222 48.4078 2.79688 47.4297 2.79688Z" fill="#F36F21" stroke="white" stroke-width="0.5"/>
<path d="M26 12.4375C26.4579 12.4375 26.8811 12.6831 27.1074 13.0811L39.2949 34.5107C39.5191 34.905 39.5161 35.3893 39.2881 35.7812C39.06 36.173 38.6409 36.4141 38.1875 36.4141C36.7743 36.4141 35.5353 36.7549 34.6699 37.9766C33.823 39.1721 33.3672 41.1693 33.3672 44.3828V50.4766C33.3672 51.1798 32.797 51.75 32.0938 51.75H19.9062C19.203 51.75 18.6328 51.1798 18.6328 50.4766V44.3828C18.6328 41.1693 18.177 39.1721 17.3301 37.9766C16.4646 36.755 15.2257 36.4141 13.8125 36.4141C13.3591 36.4141 12.94 36.173 12.7119 35.7812C12.4839 35.3892 12.4809 34.9049 12.7051 34.5107H12.7061L24.8936 13.0811C25.1199 12.6833 25.5422 12.4375 26 12.4375ZM21.1797 49.2031H30.8203V45.6562H21.1797V49.2031ZM27.2734 32.0938C27.2734 32.797 26.7033 33.3672 26 33.3672C25.2967 33.3672 24.7266 32.797 24.7266 32.0938V18.5264L24.2598 19.3477L16.0283 33.8203L15.8721 34.0947L16.1748 34.1836C17.7996 34.664 19.0376 35.692 19.877 37.2715C20.6113 38.6537 21.0262 40.4508 21.1436 42.8711L21.1553 43.1094H30.8447L30.8564 42.8711C30.9738 40.4508 31.3887 38.6537 32.123 37.2715C32.9624 35.692 34.2004 34.664 35.8252 34.1836L36.1279 34.0947L35.9717 33.8203L27.7412 19.3477L27.2734 18.5264V32.0938Z" fill="#F36F21" stroke="white" stroke-width="0.5"/>
</g>
<defs>
<clipPath id="clip0_134_1242">
<rect width="52" height="52" fill="white"/>
</clipPath>
</defs>
</svg>
