<svg width="50" height="49" viewBox="0 0 50 49" fill="none" xmlns="http://www.w3.org/2000/svg">
<path d="M48.1104 3.07555H28.5909V1.05215C28.5909 0.485605 28.1049 0 27.538 0H21.3824C20.8154 0 20.3295 0.485605 20.3295 1.05215V3.07555H1.05291C0.485954 3.07555 0 3.56118 0 4.12773V10.1979C0 10.7645 0.485954 11.2501 1.05291 11.2501H3.07776V38.5254C3.07776 39.092 3.56372 39.5776 4.13068 39.5776H20.4915V47.6711C20.4915 48.2377 20.9774 48.7233 21.5444 48.7233H25.6751C26.2421 48.7233 26.728 48.2377 26.728 47.6711V45.6478C26.728 45.0812 26.2421 44.5956 25.6751 44.5956C25.1082 44.5956 24.6222 45.0812 24.6222 45.6478V46.6999H22.5973V39.5776H24.6222V42.6531C24.6222 43.2197 25.1082 43.7053 25.6751 43.7053C26.2421 43.7053 26.728 43.2197 26.728 42.6531V39.5776H45.1947C45.7616 39.5776 46.2476 39.092 46.2476 38.5254V11.1691H48.2724C48.8394 11.1691 49.3253 10.6835 49.3253 10.117V4.04679C49.1633 3.48024 48.7584 3.07555 48.1104 3.07555ZM44.0607 30.3509H37.9052C37.3382 30.3509 36.8523 30.8365 36.8523 31.4031C36.8523 31.9696 37.3382 32.4552 37.9052 32.4552H44.0607V37.5542C25.5941 37.5542 22.0304 37.5542 5.10261 37.5542V18.2105H11.2581C11.8251 18.2105 12.3111 17.7249 12.3111 17.1584C12.3111 16.5918 11.8251 16.1062 11.2581 16.1062H5.10261V11.0073H44.0607V30.3509ZM47.0575 9.14573C38.1482 9.14573 11.3392 9.14573 2.02485 9.14573V5.09894C5.34561 5.09894 21.1394 5.09894 24.5412 5.09894C25.1081 5.09894 25.5941 4.61334 25.5941 4.04679C25.5941 3.48024 25.1081 2.99461 24.5412 2.99461H22.5163V1.94245H26.647V3.96585C26.647 4.5324 27.133 5.018 27.7 5.018H47.1385V9.14573H47.0575Z" fill="black"/>
<path d="M21.5446 25.8185H22.5975V27.3563C22.5975 27.9229 23.0835 28.4085 23.6505 28.4085C24.2174 28.4085 24.7034 27.9229 24.7034 27.3563V25.8185H25.7563C26.3233 25.8185 26.8092 25.3329 26.8092 24.7664C26.8092 24.1998 26.3233 23.7142 25.7563 23.7142H24.7034V22.1764C24.7034 21.6099 24.2174 21.1243 23.6505 21.1243C23.0835 21.1243 22.5975 21.6099 22.5975 22.1764V23.7142H21.5446C20.9777 23.7142 20.4917 24.1998 20.4917 24.7664C20.4917 25.3329 20.9777 25.8185 21.5446 25.8185Z" fill="black"/>
<path d="M11.2581 20.2339C11.2581 20.8005 11.7441 21.2861 12.311 21.2861H15.3888V23.3095H12.311C11.7441 23.3095 11.2581 23.7951 11.2581 24.3617V28.4085C11.2581 28.975 11.7441 29.4606 12.311 29.4606H16.4417C17.0087 29.4606 17.4946 28.975 17.4946 28.4085C17.4946 27.8419 17.0087 27.3563 16.4417 27.3563H13.3639V25.3329H16.4417C17.0087 25.3329 17.4946 24.8473 17.4946 24.2807V20.2339C17.4946 19.6674 17.0087 19.1818 16.4417 19.1818H12.311C11.6631 19.2627 11.2581 19.6674 11.2581 20.2339Z" fill="black"/>
<path d="M31.7495 29.3797H35.8802C36.4471 29.3797 36.9331 28.894 36.9331 28.3275C36.9331 27.7609 36.4471 27.2753 35.8802 27.2753H32.8024V25.2519H35.8802C36.4471 25.2519 36.9331 24.7663 36.9331 24.1998V20.153C36.9331 19.5864 36.4471 19.1008 35.8802 19.1008H31.7495C31.1825 19.1008 30.6965 19.5864 30.6965 20.153C30.6965 20.7195 31.1825 21.2051 31.7495 21.2051H34.8273V23.2285H31.7495C31.1825 23.2285 30.6965 23.7142 30.6965 24.2807V28.3275C30.6965 28.894 31.1825 29.3797 31.7495 29.3797Z" fill="black"/>
</svg>
