<svg width="46" height="45" viewBox="0 0 46 45" fill="none" xmlns="http://www.w3.org/2000/svg">
<path d="M44.2308 15.8491H30.0829V0.967353C30.0829 0.44649 29.6361 0 29.1149 0H0.968027C0.446789 0 0 0.44649 0 0.967353V21.4298C0 21.9507 0.446789 22.3971 0.968027 22.3971H7.29734L6.62719 27.829C6.47826 28.7219 7.66965 29.2427 8.26535 28.5731L13.6267 22.3971H15.0414V37.2789C15.0414 37.7998 15.4882 38.2462 16.0094 38.2462H31.4977L36.859 44.4222C37.4547 45.0918 38.4971 44.6454 38.4971 43.8269C38.4971 43.7525 38.3482 42.4875 37.7525 38.2462H44.0818C44.6031 38.2462 45.0498 37.7998 45.0498 37.2789V16.742C45.1243 16.2212 44.752 15.8491 44.2308 15.8491ZM13.1054 20.4625C12.8076 20.4625 12.5842 20.6113 12.3608 20.7601L8.71213 24.927L9.15891 21.5042C9.23337 20.9089 8.78659 20.4625 8.26535 20.4625H1.78712V1.86022H28.1469V15.8491H15.935C15.4138 15.8491 14.967 16.2956 14.967 16.8165V20.5369L13.1054 20.4625ZM43.2627 36.3116H36.7845C36.1888 36.3116 35.8165 36.8325 35.891 37.3533L36.3377 40.7762L32.6891 36.6092C32.5402 36.386 32.2423 36.3116 31.9445 36.3116H16.903V17.7094H43.2627V36.3116Z" fill="black"/>
<path d="M32.9128 33.484C33.4341 33.484 33.8808 33.0375 33.8808 32.5167V28.7962H39.54V32.5167C39.54 33.0375 39.9868 33.484 40.508 33.484C41.0293 33.484 41.476 33.0375 41.476 32.5167V23.1412C41.476 21.653 40.2846 20.4624 38.7954 20.4624H34.7744C33.2851 20.4624 32.0937 21.653 32.0937 23.1412V32.5911C31.9448 33.112 32.3916 33.484 32.9128 33.484ZM34.6255 22.3226H38.6465C39.0932 22.3226 39.4655 22.6947 39.4655 23.1412V27.0104H33.8064V23.1412C33.8064 22.6947 34.1787 22.3226 34.6255 22.3226Z" fill="black"/>
<path d="M27.9238 31.9214C28.0727 31.5494 28.1472 31.1773 28.1472 30.8053V23.1412C28.1472 21.653 26.9558 20.4624 25.4665 20.4624H21.4455C19.9563 20.4624 18.7649 21.653 18.7649 23.1412V30.8053C18.7649 32.2934 19.9563 33.484 21.4455 33.484H25.4665C25.8388 33.484 26.2111 33.4096 26.5835 33.2608L27.477 34.1537C27.8493 34.5257 28.445 34.5257 28.8173 34.1537C29.1896 33.7816 29.1896 33.1864 28.8173 32.8143L27.9238 31.9214ZM21.4455 31.6237C20.9988 31.6237 20.6265 31.2517 20.6265 30.8053V23.1412C20.6265 22.6947 20.9988 22.3226 21.4455 22.3226H25.4665C25.9133 22.3226 26.2856 22.6947 26.2856 23.1412V30.2844L25.0942 29.0939C24.7219 28.7218 24.1262 28.7218 23.7539 29.0939C23.3816 29.4659 23.3816 30.0612 23.7539 30.4332L24.9453 31.6237H21.4455Z" fill="black"/>
<path d="M16.9033 5.58083C16.9033 5.05997 16.4565 4.61353 15.9352 4.61353H4.61693C4.09569 4.61353 3.64893 5.05997 3.64893 5.58083V15.8493C3.64893 16.3702 4.09569 16.8166 4.61693 16.8166C5.13817 16.8166 5.58493 16.3702 5.58493 15.8493V6.54819H16.0097C16.5309 6.54819 16.9033 6.1017 16.9033 5.58083Z" fill="black"/>
</svg>
