<svg width="54" height="54" viewBox="0 0 54 54" fill="none" xmlns="http://www.w3.org/2000/svg">
<path d="M20.5198 28.6605C20.0572 28.6605 19.8035 28.4739 19.6692 28.0262C18.3186 23.579 16.9382 19.0498 15.5951 14.6698L14.9012 12.4014C14.6997 11.7523 14.3938 11.4986 13.7968 11.4911C12.1553 11.4836 10.3943 11.4762 8.65573 11.4986C8.42442 11.4986 8.16326 11.5806 7.96925 11.7C7.61109 11.9239 7.44693 12.3567 7.57378 12.7521C7.72302 13.2222 8.06625 13.4908 8.53634 13.4908C9.61082 13.4983 11.0285 13.5132 12.4463 13.4908C12.9387 13.4834 13.1924 13.6699 13.3267 14.1325C14.6699 18.5648 16.0503 23.0716 17.3784 27.4293L18.0798 29.7275C18.3037 30.4587 18.5872 30.6677 19.3409 30.6677C20.8108 30.6677 22.2808 30.6677 23.7433 30.6677C24.7058 30.6677 25.6758 30.6677 26.6533 30.6677C29.153 30.6677 31.6825 30.6677 34.1896 30.6751C34.1896 30.6751 34.1896 30.6751 34.1971 30.6751C34.8537 30.6751 35.2343 30.414 35.488 29.8021C36.3237 27.7874 37.1892 25.7355 38.0249 23.7581C38.3533 22.9896 38.6741 22.2136 39.0024 21.445C39.1367 21.1241 39.2785 20.7958 39.4128 20.475C39.7337 19.7139 40.0694 18.9229 40.3828 18.1469C40.5395 17.7515 40.5246 17.3635 40.3306 17.0724C40.159 16.8113 39.868 16.6621 39.5098 16.6546C38.1518 16.6247 36.8162 16.6322 35.2343 16.6546C34.8313 16.6621 34.5403 16.871 34.3762 17.2515C34.2419 17.5798 34.2643 17.9231 34.4433 18.1992C34.6224 18.4752 34.9358 18.6394 35.3014 18.6543C35.7864 18.6693 36.2789 18.6618 36.7938 18.6618C37.0325 18.6618 37.2713 18.6618 37.5175 18.6618H37.9279L37.7936 19.0573C37.7787 19.1095 37.7638 19.1617 37.7489 19.199C37.719 19.2811 37.7041 19.3483 37.6742 19.4229C37.3534 20.1914 37.0251 20.9675 36.7042 21.736C35.8163 23.8402 34.906 26.019 34.0106 28.1605C33.824 28.6157 33.4957 28.6754 33.1972 28.6754C28.3173 28.653 24.288 28.653 20.5198 28.6605Z" fill="black"/>
<path d="M20.6543 18.5571H21.9079C24.6687 18.5571 27.437 18.5571 30.1978 18.5571H30.2351C30.3844 18.5571 30.5336 18.5571 30.6679 18.5348C31.0186 18.4751 31.2947 18.2363 31.4215 17.9005C31.5484 17.5647 31.4887 17.1991 31.2723 16.923C31.0634 16.6619 30.7798 16.5425 30.362 16.5425H30.3545C29.1607 16.5425 27.9519 16.5425 26.7804 16.5425H25.4298C24.9075 16.5425 24.3777 16.5425 23.8554 16.5425C23.4375 16.5425 23.0122 16.5425 22.5869 16.5425C21.8631 16.5425 21.1319 16.5425 20.4081 16.5499C19.8335 16.5499 19.3933 16.9753 19.3858 17.5349C19.3784 18.0945 19.8037 18.5198 20.3932 18.5571C20.4603 18.5571 20.5275 18.5571 20.6021 18.5571H20.6543Z" fill="black"/>
<path d="M33.6519 38.0993C34.0324 38.4799 34.5324 38.6888 35.0696 38.6888C35.6069 38.6888 36.1068 38.4799 36.4873 38.0993C36.8679 37.7188 37.0694 37.2188 37.0694 36.6816C37.0619 35.5922 36.174 34.7042 35.0845 34.6968C35.0771 34.6968 35.0771 34.6968 35.0696 34.6968C34.5398 34.6968 34.0399 34.8982 33.6668 35.2713C33.2863 35.6444 33.0773 36.1518 33.0773 36.689C33.0699 37.2114 33.2714 37.7188 33.6519 38.0993Z" fill="black"/>
<path d="M18.0126 34.6895C16.9232 34.6895 16.0278 35.5774 16.0129 36.6668C16.0054 37.204 16.2069 37.7114 16.5874 38.092C16.9605 38.4725 17.4605 38.6889 17.9977 38.6889C18.0052 38.6889 18.0052 38.6889 18.0126 38.6889C18.5424 38.6889 19.0423 38.4875 19.4154 38.1144C19.796 37.7413 20.0049 37.2339 20.0124 36.6966C20.0124 36.1594 19.8109 35.6595 19.4303 35.2789C19.0498 34.8984 18.5499 34.6895 18.0126 34.6895Z" fill="black"/>
</svg>
