<svg width="19" height="15" viewBox="0 0 19 15" fill="none" xmlns="http://www.w3.org/2000/svg">
<path d="M18.0192 2.63083C18.0192 6.46861 18.0192 10.3094 18.0192 14.1472C17.9871 14.2053 17.9521 14.2603 17.9229 14.3183C17.8529 14.465 17.6283 14.5781 17.4737 14.5414C16.6892 14.3428 15.9104 14.1136 15.0996 14.0433C14.5192 13.9944 13.9446 13.9089 13.3642 13.8783C12.0371 13.805 10.745 14.0097 9.52292 14.5658C9.15542 14.7339 8.84625 14.7247 8.4875 14.5597C7.7 14.19 6.86 13.9914 6.0025 13.9089C4.8125 13.7958 3.62542 13.8997 2.45 14.1075C1.89292 14.2053 1.33875 14.3428 0.790417 14.4833C0.335417 14.5994 0.204167 14.5567 0.0116666 14.1564C0.00874993 14.1533 0.00291667 14.1503 0 14.1472C0 10.3094 0 6.46861 0 2.63083C0.0175 2.61556 0.0437499 2.60028 0.0495832 2.57889C0.134167 2.30389 0.335417 2.23056 0.580417 2.23056C0.915833 2.23056 0.915833 2.2275 0.915833 2.57583C0.915833 6.105 0.915833 9.63111 0.912917 13.1603C0.912917 13.2581 0.912917 13.3528 0.912917 13.4567C0.950833 13.4536 0.977083 13.4536 1.00042 13.4475C2.24 13.1481 3.49125 12.9708 4.76292 12.925C5.89458 12.8853 6.99417 13.0594 8.07042 13.4108C8.13458 13.4322 8.20458 13.4444 8.26875 13.4597C8.25708 13.4047 8.23375 13.3772 8.21042 13.3558C7.51042 12.7539 6.71708 12.3292 5.85083 12.0725C4.86208 11.7792 3.84417 11.6936 2.8175 11.7211C2.625 11.7272 2.4325 11.7547 2.24 11.7547C1.96875 11.7547 1.77333 11.5439 1.77625 11.2628C1.785 8.84278 1.79375 6.42278 1.80542 3.99972C1.81125 2.87833 1.82292 1.75389 1.83458 0.6325C1.8375 0.290278 1.97458 0.113056 2.30125 0.0886112C2.89917 0.0397223 3.50292 0 4.10375 0C4.64917 0 5.1975 0.0275 5.73708 0.149722C6.83958 0.397222 7.81667 0.88 8.61 1.73861C8.75292 1.89139 8.88417 2.05639 9.02708 2.21833C9.05333 2.19083 9.07667 2.1725 9.09708 2.14806C9.89042 1.21306 10.8792 0.608056 12.0312 0.296389C12.6 0.143611 13.1833 0.0702779 13.7725 0.0397223C14.4462 0.00305565 15.1142 0.0152778 15.7821 0.0916667C16.0387 0.122222 16.2575 0.259722 16.2546 0.647778C16.2429 1.86389 16.2487 3.08 16.2487 4.29611C16.2487 6.60917 16.2517 8.92222 16.2546 11.2322C16.2546 11.5897 16.0271 11.7944 15.6712 11.7486C15.0208 11.6661 14.3704 11.66 13.72 11.7364C12.3725 11.8922 11.1883 12.485 10.0713 13.2519C10.0275 13.2825 9.99542 13.3283 9.93708 13.3894C9.9925 13.3894 10.0071 13.3925 10.0188 13.3894C10.0917 13.3711 10.1617 13.3497 10.2317 13.3283C11.1533 13.0472 12.0925 12.9067 13.0492 12.9219C14.1663 12.9403 15.2717 13.0808 16.3683 13.3069C16.6075 13.3558 16.8467 13.4139 17.0975 13.4689C17.0975 9.72583 17.0975 5.99806 17.0975 2.23972C17.1879 2.23972 17.2783 2.24278 17.3717 2.23972C17.6429 2.2275 17.8733 2.29167 17.9725 2.59722C17.9812 2.60944 18.0046 2.61861 18.0192 2.63083ZM9.48208 12.54C10.0887 12.1244 10.6896 11.7639 11.3283 11.4675C12.5562 10.8931 13.8483 10.7006 15.1812 10.7556C15.3183 10.7617 15.3475 10.725 15.3475 10.5906C15.3446 8.91 15.3446 7.22944 15.3446 5.54889C15.3446 4.10972 15.3446 2.67361 15.3475 1.23444C15.3475 0.983889 15.3533 0.974722 15.1142 0.9625C13.9037 0.910555 12.7079 0.971667 11.5588 1.43611C10.7508 1.76306 10.1004 2.31 9.58708 3.04028C9.52875 3.12583 9.485 3.24806 9.485 3.35194C9.47917 6.36167 9.48208 9.37139 9.48208 12.3811C9.48208 12.4269 9.48208 12.4728 9.48208 12.54ZM8.53417 12.4392C8.53417 12.2894 8.53417 12.1519 8.53417 12.0144C8.53417 9.10861 8.53708 6.19972 8.53417 3.29389C8.53417 3.20528 8.50792 3.1075 8.46417 3.03417C7.83417 1.99222 6.895 1.40556 5.78375 1.11833C4.89417 0.889167 3.98125 0.840278 3.0625 0.922778C2.73875 0.953333 2.73583 0.941111 2.73292 1.28028C2.72125 3.26639 2.70958 5.2525 2.70083 7.23861C2.695 8.37222 2.695 9.50278 2.69208 10.6364C2.69208 10.7311 2.7125 10.7769 2.81458 10.7769C3.51167 10.7586 4.20583 10.7953 4.89417 10.9206C5.43667 11.0183 5.98208 11.11 6.50417 11.3147C7.22167 11.5989 7.89833 11.9594 8.53417 12.4392Z" fill="#222528"/>
<path d="M14.4029 8.40889C14.4029 8.4975 14.3474 8.60139 14.2249 8.63806C14.0733 8.68083 13.9187 8.7175 13.7641 8.73583C12.787 8.855 11.877 9.18806 11.0166 9.67694C10.9204 9.73194 10.8299 9.79 10.7308 9.84194C10.5791 9.92139 10.4158 9.86639 10.3254 9.7075C10.2437 9.56083 10.2758 9.405 10.4187 9.30417C10.9379 8.94056 11.5037 8.67778 12.0929 8.46694C12.7024 8.25 13.3295 8.12472 13.9683 8.04222C14.2424 8.00556 14.3999 8.12472 14.4029 8.40889Z" fill="#222528"/>
<path d="M13.953 2.60644C14.2301 2.59727 14.3759 2.71949 14.3934 2.91505C14.408 3.07699 14.2563 3.23588 14.0609 3.25727C12.9438 3.37338 11.8938 3.70949 10.9196 4.30227C10.8613 4.33894 10.7971 4.37255 10.733 4.39394C10.5726 4.44588 10.453 4.39088 10.3742 4.23505C10.3013 4.09755 10.3188 3.93866 10.4588 3.85311C10.768 3.66061 11.0801 3.47116 11.4038 3.31838C12.0921 2.99449 12.8155 2.76838 13.568 2.66755C13.7167 2.64616 13.8684 2.61866 13.953 2.60644Z" fill="#222528"/>
<path d="M14.3793 5.66801C14.391 5.81162 14.3006 5.90328 14.1693 5.94606C14.0672 5.97967 13.9564 5.98884 13.8485 6.00412C12.7839 6.14162 11.7835 6.48384 10.8618 7.06134C10.6576 7.18967 10.4943 7.16829 10.3951 7.00329C10.2843 6.82301 10.3251 6.63967 10.5293 6.50523C11.1564 6.09579 11.8389 5.81162 12.5506 5.61301C13.0347 5.47551 13.5247 5.34412 14.0293 5.32579C14.2481 5.31967 14.3764 5.43884 14.3793 5.66801Z" fill="#222528"/>
<path d="M3.99571 8.03616C4.69571 8.10949 5.38696 8.26838 6.06071 8.51588C6.59738 8.71144 7.11071 8.96199 7.58613 9.28894C7.80196 9.4356 7.78738 9.70755 7.57155 9.84199C7.45196 9.91532 7.34988 9.8756 7.23905 9.81755C6.84238 9.60977 6.45446 9.3806 6.04321 9.21255C5.41905 8.95588 4.77446 8.76338 4.0978 8.71755C4.03071 8.71144 3.96071 8.69921 3.89363 8.68088C3.68363 8.62282 3.61071 8.51894 3.63696 8.31727C3.66321 8.12782 3.78571 8.03005 3.99571 8.03616Z" fill="#222528"/>
<path d="M3.96114 5.31976C4.51823 5.33809 5.05198 5.49698 5.58281 5.6467C6.23323 5.83003 6.84573 6.11114 7.42906 6.46559C7.46698 6.49003 7.50489 6.51142 7.53989 6.54198C7.68864 6.66114 7.72364 6.83226 7.63031 6.9942C7.54281 7.14698 7.38823 7.1867 7.21614 7.09503C6.99739 6.97587 6.78448 6.84142 6.56281 6.73142C5.74614 6.32809 4.88864 6.06226 3.98448 5.9767C3.87656 5.96753 3.75698 5.90031 3.67823 5.82392C3.58489 5.73226 3.58781 5.57948 3.66364 5.47864C3.73073 5.39003 3.84156 5.3442 3.93489 5.27698C3.94656 5.29226 3.95531 5.30753 3.96114 5.31976Z" fill="#222528"/>
<path d="M4.03092 2.60338C4.96426 2.71032 5.88009 2.9456 6.74342 3.37338C7.02342 3.51088 7.28884 3.67894 7.55717 3.84394C7.65634 3.90505 7.73801 3.99671 7.70009 4.13727C7.66217 4.27477 7.58343 4.38782 7.44342 4.40616C7.35884 4.41532 7.26259 4.38171 7.18092 4.34199C6.70551 4.11893 6.24467 3.85921 5.75759 3.66671C5.18592 3.4406 4.58801 3.30616 3.97259 3.25421C3.75092 3.23588 3.61092 3.07699 3.62842 2.89366C3.64592 2.71338 3.80342 2.59727 4.03092 2.60338Z" fill="#222528"/>
</svg>
