<svg width="19" height="18" viewBox="0 0 19 18" fill="none" xmlns="http://www.w3.org/2000/svg">
<path d="M4.34915 8.19869C4.17123 8.02661 3.88832 8.02661 3.71623 8.20453C3.54415 8.38244 3.54415 8.66536 3.72207 8.83744L4.64082 9.73869C4.81582 9.91078 5.10165 9.91078 5.27373 9.73286L7.04707 7.93911C7.22207 7.76411 7.21915 7.47828 7.04415 7.30619C6.86915 7.13119 6.58332 7.13411 6.41123 7.30911L4.9529 8.78494L4.34915 8.19869Z" fill="#222528"/>
<path d="M4.34915 12.6817C4.17123 12.5096 3.88832 12.5096 3.71623 12.6876C3.54415 12.8655 3.54415 13.1484 3.72207 13.3205L4.64082 14.2217C4.81582 14.3938 5.10165 14.3938 5.27373 14.2159L7.04707 12.4221C7.22207 12.2471 7.21915 11.9613 7.04415 11.7892C6.86915 11.6142 6.58332 11.6171 6.41123 11.7921L4.9529 13.268L4.34915 12.6817Z" fill="#222528"/>
<path d="M10.3134 8.9717L14.7818 8.97753C15.0297 8.97753 15.2309 8.77628 15.2309 8.52836C15.2309 8.28045 15.0297 8.0792 14.7818 8.0792L10.3134 8.07336C10.0655 8.07336 9.86426 8.27461 9.86426 8.52253C9.86426 8.77045 10.0655 8.9717 10.3134 8.9717Z" fill="#222528"/>
<path d="M10.3134 13.4546L14.7818 13.4604C15.0297 13.4604 15.2309 13.2592 15.2309 13.0113C15.2309 12.7634 15.0297 12.5621 14.7818 12.5621L10.3134 12.5563C10.0655 12.5563 9.86426 12.7575 9.86426 13.0054C9.86426 13.2534 10.0655 13.4546 10.3134 13.4546Z" fill="#222528"/>
<path d="M4.48292 0.898333V0.449167C4.48292 0.20125 4.68417 0 4.93208 0C5.18 0 5.38125 0.20125 5.38125 0.449167V0.898333H13.4546V0.449167C13.4546 0.20125 13.6558 0 13.9037 0C14.1517 0 14.3529 0.20125 14.3529 0.449167V0.898333H17.4913C18.235 0.898333 18.8358 1.50208 18.8358 2.24292V13.9037C18.8358 16.1321 17.0275 17.9404 14.7992 17.9404H4.03667C1.80833 17.9404 0 16.1321 0 13.9037V2.24292C0 1.49917 0.60375 0.898333 1.34458 0.898333H4.48292ZM4.48292 1.79375H1.34167C1.09375 1.79375 0.8925 1.995 0.8925 2.24292V4.48583H17.9346V2.24292C17.9346 1.995 17.7333 1.79375 17.4854 1.79375H14.35V2.24292C14.35 2.49083 14.1488 2.69208 13.9008 2.69208C13.6529 2.69208 13.4517 2.49083 13.4517 2.24292V1.79375H5.37833V2.24292C5.37833 2.49083 5.17708 2.69208 4.92917 2.69208C4.68125 2.69208 4.48 2.49083 4.48 2.24292V1.79375H4.48292ZM0.895417 5.38417V13.9067C0.895417 15.6392 2.30125 17.045 4.03375 17.045H14.7963C16.5288 17.045 17.9346 15.6392 17.9346 13.9067V5.38417H0.895417Z" fill="#222528"/>
</svg>
