<svg width="20" height="18" viewBox="0 0 20 18" fill="none" xmlns="http://www.w3.org/2000/svg">
<path d="M16.4629 4.08679H2.71289C1.5738 4.08679 0.650391 5.0102 0.650391 6.14929V14.3993C0.650391 15.5384 1.5738 16.4618 2.71289 16.4618H16.4629C17.602 16.4618 18.5254 15.5384 18.5254 14.3993V6.14929C18.5254 5.0102 17.602 4.08679 16.4629 4.08679Z" stroke="#222528" stroke-width="1.3" stroke-linejoin="round"/>
<path d="M16.2635 4.08683V2.79777C16.2634 2.48161 16.1935 2.16937 16.0589 1.88332C15.9242 1.59728 15.728 1.34448 15.4844 1.14297C15.2408 0.941456 14.9557 0.796196 14.6495 0.717553C14.3433 0.638909 14.0235 0.62882 13.7129 0.688005L2.39664 2.61945C1.90522 2.7131 1.46188 2.97531 1.14309 3.36085C0.824303 3.74639 0.650052 4.2311 0.650391 4.73136V6.83683" stroke="#222528" stroke-width="1.3" stroke-linejoin="round"/>
<path d="M14.4004 11.6493C14.1284 11.6493 13.8626 11.5687 13.6365 11.4176C13.4104 11.2665 13.2341 11.0517 13.1301 10.8005C13.026 10.5492 12.9988 10.2728 13.0518 10.006C13.1049 9.73932 13.2358 9.49432 13.4281 9.30202C13.6204 9.10972 13.8654 8.97877 14.1321 8.92571C14.3989 8.87266 14.6753 8.89989 14.9266 9.00396C15.1778 9.10803 15.3926 9.28427 15.5437 9.51038C15.6947 9.7365 15.7754 10.0023 15.7754 10.2743C15.7754 10.639 15.6305 10.9887 15.3727 11.2466C15.1148 11.5044 14.7651 11.6493 14.4004 11.6493Z" fill="#222528"/>
</svg>
