<svg width="22" height="28" viewBox="0 0 22 28" fill="none" xmlns="http://www.w3.org/2000/svg">
<path d="M11.2377 0.25C11.403 0.302465 11.5782 0.344437 11.7335 0.417888C12.6099 0.821868 13.0456 1.54064 13.0756 2.53223C13.0857 2.91522 13.0857 3.30346 13.0756 3.68646C13.0706 3.87533 13.1307 3.95403 13.301 4.01699C15.795 4.95087 17.4126 6.75042 18.1588 9.41564C18.3591 10.1239 18.4142 10.8532 18.4142 11.5929C18.4192 12.8888 18.3791 14.1847 18.4593 15.4753C18.5795 17.49 19.4058 19.1794 20.808 20.5645C20.9182 20.6746 21.0334 20.7743 21.1386 20.8845C21.6093 21.3777 21.7596 22.0964 21.4991 22.7208C21.2237 23.3818 20.7229 23.7491 20.0318 23.7543C18.304 23.7701 16.5763 23.7596 14.8485 23.7596C14.7884 23.7596 14.7333 23.7596 14.6532 23.7596C14.6231 23.8907 14.5981 24.0167 14.568 24.1373C14.1223 25.7585 13.1107 26.7396 11.5282 27.0649C11.4831 27.0754 11.438 27.0963 11.3929 27.1121C11.0925 27.1121 10.792 27.1121 10.4915 27.1121C10.3262 27.0701 10.156 27.0334 9.9907 26.9809C8.54338 26.5245 7.63192 25.5276 7.28136 23.9799C7.26634 23.9117 7.25131 23.8435 7.22627 23.7543C7.13613 23.7543 7.04598 23.7543 6.95584 23.7543C5.25311 23.7543 3.55038 23.7596 1.84765 23.7491C1.20162 23.7438 0.710833 23.4186 0.425376 22.81C0.144927 22.2119 0.205023 21.619 0.575617 21.0786C0.665761 20.9474 0.785953 20.832 0.906146 20.7218C2.60887 19.1269 3.45022 17.128 3.46525 14.7408C3.47526 13.5604 3.45523 12.3799 3.47526 11.1994C3.53536 7.99384 5.59866 5.0558 8.50833 4.04322C8.7387 3.96452 8.81882 3.85959 8.80881 3.60776C8.79378 3.16181 8.78377 2.71586 8.82884 2.2699C8.92399 1.25733 9.58004 0.517572 10.5316 0.297219C10.5716 0.286726 10.6067 0.26574 10.6468 0.25C10.8371 0.25 11.0374 0.25 11.2377 0.25ZM10.9372 22.6421C10.9372 22.6368 10.9372 22.6316 10.9372 22.6263C12.0039 22.6263 13.0706 22.6263 14.1424 22.6263C16.0304 22.6316 17.9134 22.6368 19.8014 22.6368C19.8916 22.6368 19.9867 22.6368 20.0769 22.6263C20.2922 22.5948 20.4475 22.4794 20.5226 22.2591C20.5977 22.0387 20.5426 21.8498 20.3974 21.682C20.3523 21.6295 20.3022 21.5875 20.2521 21.5403C18.3391 19.7303 17.3725 17.4743 17.3575 14.7723C17.3475 13.6863 17.3625 12.6055 17.3525 11.5195C17.3475 11.1732 17.3375 10.8165 17.2874 10.4754C16.6864 6.4776 13.0756 3.96977 9.32463 4.95087C6.61028 5.65914 4.57703 8.32961 4.53696 11.2624C4.52194 12.4534 4.54197 13.6391 4.53196 14.83C4.51693 17.107 3.79578 19.1059 2.34345 20.8058C2.08804 21.1048 1.79757 21.3672 1.52213 21.6505C1.35186 21.8236 1.27674 22.023 1.36188 22.2643C1.44701 22.5057 1.62229 22.6158 1.85767 22.6421C1.94281 22.6473 2.02294 22.6473 2.10807 22.6473C5.04778 22.6421 7.9925 22.6421 10.9372 22.6421ZM8.34807 23.7648C8.47327 24.961 9.70524 26.0103 10.9573 25.9946C12.2193 25.9788 13.4512 24.9086 13.5264 23.7648C11.7986 23.7648 10.0758 23.7648 8.34807 23.7648ZM11.9839 3.63924C11.9889 3.61825 11.9989 3.58677 11.9989 3.5553C11.9989 3.17755 12.0089 2.80505 11.9939 2.4273C11.9739 1.85543 11.5582 1.41997 11.0023 1.3675C10.5165 1.32029 9.98069 1.68754 9.91057 2.20695C9.84547 2.68438 9.89555 3.1723 9.89555 3.63924C10.6017 3.63924 11.2878 3.63924 11.9839 3.63924Z" fill="black" stroke="black" stroke-width="0.5" stroke-miterlimit="10"/>
</svg>
