<svg width="19" height="20" viewBox="0 0 19 20" fill="none" xmlns="http://www.w3.org/2000/svg">
<path d="M3.64833 12.7753H3.19306C1.43 12.7753 0 11.3453 0 9.58222V6.84444C0 6.59389 0.204722 6.38917 0.455278 6.38917C0.705833 6.38917 0.910555 6.59389 0.910555 6.84444V9.58222C0.910555 10.8411 1.93111 11.8647 3.19306 11.8647H3.89278C4.05167 11.5867 4.28389 11.3575 4.56194 11.1956V7.29972H5.47556V10.9511H16.4267V3.19306C16.4267 1.94639 15.2625 0.910556 13.8019 0.910556H8.09722C6.63667 0.910556 5.4725 1.94333 5.4725 3.19306V4.56194H4.55889V3.19306C4.55889 1.41778 6.15389 0 8.09417 0H13.7989C15.7392 0 17.3342 1.41778 17.3342 3.19306V11.1956C17.8811 11.5103 18.2478 12.1 18.2478 12.7753C18.2478 13.4322 17.9025 14.0067 17.3831 14.3275L18.2417 18.6175C18.3608 19.2133 17.4656 19.3936 17.3464 18.7978L16.5061 14.5994C16.4786 14.5994 16.4511 14.6025 16.4236 14.6025H5.47556C5.44806 14.6025 5.42056 14.6025 5.39306 14.5994L4.55278 18.7978C4.50389 19.0453 4.2625 19.2042 4.015 19.1553C3.7675 19.1064 3.60861 18.865 3.6575 18.6175L4.51611 14.3275C3.99667 14.0067 3.64833 13.4322 3.64833 12.7753ZM5.47556 11.8617C4.97139 11.8617 4.56194 12.2711 4.56194 12.7753C4.56194 13.2794 4.97139 13.6889 5.47556 13.6889H16.4267C16.9308 13.6889 17.3403 13.2794 17.3403 12.7753C17.3403 12.2711 16.9308 11.8617 16.4267 11.8617H5.47556Z" fill="#222528"/>
<path d="M0.910555 6.38606H12.7753V5.47245H0.910555V6.38606ZM0.455278 4.56189H13.2306C13.4811 4.56189 13.6858 4.76661 13.6858 5.01717V6.84439C13.6858 7.09495 13.4811 7.29967 13.2306 7.29967H0.455278C0.204722 7.29967 0 7.09495 0 6.84439V5.02022C0 4.76661 0.201667 4.56189 0.455278 4.56189Z" fill="#222528"/>
</svg>
