<svg width="58" height="58" viewBox="0 0 58 58" fill="none" xmlns="http://www.w3.org/2000/svg">
<path d="M25.0405 10.9727C36.8035 8.51624 47.4409 17.3783 47.4409 29C47.4409 34.0827 45.4125 38.8144 41.7271 42.3262C38.8782 45.0408 37.2456 48.8943 37.2456 52.8984C37.2454 55.5755 35.0704 57.75 32.3979 57.75H25.6011C22.9285 57.7498 20.7534 55.575 20.7534 52.9023C20.7534 48.8942 19.1216 45.0408 16.272 42.3252C11.9506 38.2071 9.73889 32.1439 10.8384 25.7441C12.097 18.4198 17.8064 12.4833 25.0405 10.9727ZM44.5425 29C44.5425 19.1734 35.5506 11.7385 25.6323 13.8096C19.5495 15.08 14.7537 20.0733 13.6948 26.2354C12.792 31.4917 14.4596 36.5941 18.271 40.2266C21.6897 43.4844 23.6519 48.1034 23.6519 52.8984C23.652 53.9769 24.5259 54.8513 25.6011 54.8516H32.3979C33.473 54.8516 34.3471 53.9773 34.3472 52.9023C34.3472 48.1025 36.3101 43.4844 39.728 40.2275C42.8325 37.2695 44.5425 33.2808 44.5425 29Z" fill="#F36F21" stroke="white" stroke-width="0.5"/>
<path d="M29 20.7539C29.5488 20.7539 30.0505 21.0639 30.2959 21.5547L33.6943 28.3516C33.795 28.5528 33.8477 28.775 33.8477 29V42.5938C33.8477 43.3941 33.1988 44.043 32.3984 44.043H25.6016C24.8012 44.043 24.1523 43.3941 24.1523 42.5938V29C24.1523 28.775 24.205 28.5528 24.3057 28.3516L27.7041 21.5547C27.9495 21.0639 28.4512 20.7539 29 20.7539ZM27.0508 41.1445H30.9492V33.8477H27.0508V41.1445ZM30.9492 29.3418L29 25.4434L27.0508 29.3418V30.9492H30.9492V29.3418Z" fill="#F36F21" stroke="white" stroke-width="0.5"/>
<path d="M14.6813 4.19971C15.3743 3.79959 16.2605 4.03709 16.6608 4.72998L18.36 7.67334C18.7602 8.36643 18.5229 9.25265 17.8297 9.65283C17.1384 10.0518 16.2516 9.81773 15.8502 9.12256L14.151 6.1792C13.751 5.4862 13.9883 4.59988 14.6813 4.19971Z" fill="#F36F21" stroke="white" stroke-width="0.5"/>
<path d="M7.67346 39.6394C8.36653 39.2394 9.25263 39.4767 9.65295 40.1697C10.0282 40.8194 9.84334 41.6394 9.24768 42.0691L9.12268 42.1492L6.17932 43.8484C5.488 44.2474 4.60118 44.0133 4.19983 43.3181C3.79977 42.6251 4.03711 41.7388 4.7301 41.3386L7.67346 39.6394Z" fill="#F36F21" stroke="white" stroke-width="0.5"/>
<path d="M51.8203 14.1511C52.5132 13.751 53.3995 13.9884 53.7998 14.6814C54.175 15.3311 53.9902 16.1511 53.3945 16.5808L53.2695 16.6609L50.3262 18.3601C49.6349 18.7592 48.748 18.525 48.3467 17.8298C47.9466 17.1368 48.184 16.2505 48.877 15.8503L51.8203 14.1511Z" fill="#F36F21" stroke="white" stroke-width="0.5"/>
<path d="M48.3467 40.1697C48.7467 39.4767 49.633 39.2393 50.3262 39.6394L53.2695 41.3386C53.9627 41.7388 54.1999 42.625 53.7998 43.3181C53.398 44.014 52.5105 44.2478 51.8203 43.8494L48.877 42.1501V42.1492C48.1841 41.7489 47.9465 40.8626 48.3467 40.1697Z" fill="#F36F21" stroke="white" stroke-width="0.5"/>
<path d="M4.19983 14.6814C4.60001 13.9884 5.48625 13.751 6.17932 14.1511L9.12268 15.8503C9.81583 16.2505 10.0531 17.1368 9.65295 17.8298C9.25115 18.5257 8.36367 18.7595 7.67346 18.3611L4.7301 16.6619C4.0369 16.2617 3.79957 15.3745 4.19983 14.6814Z" fill="#F36F21" stroke="white" stroke-width="0.5"/>
<path d="M41.3386 4.72998C41.7388 4.03707 42.6249 3.79962 43.3181 4.19971C44.0113 4.59988 44.2486 5.48611 43.8484 6.1792L42.1492 9.12256C41.7473 9.81846 40.8599 10.0514 40.1697 9.65283C39.4767 9.25256 39.2392 8.36632 39.6394 7.67334L41.3386 4.72998Z" fill="#F36F21" stroke="white" stroke-width="0.5"/>
<path d="M29 0.25C29.8004 0.25 30.4492 0.898868 30.4492 1.69922V5.21094C30.4492 6.01129 29.8004 6.66016 29 6.66016C28.1996 6.66016 27.5508 6.01129 27.5508 5.21094V1.69922C27.5508 0.898868 28.1996 0.25 29 0.25Z" fill="#F36F21" stroke="white" stroke-width="0.5"/>
<path d="M1.69922 27.5508H5.21094C6.01129 27.5508 6.66016 28.1996 6.66016 29C6.66016 29.8004 6.01129 30.4492 5.21094 30.4492H1.69922C0.898868 30.4492 0.25 29.8004 0.25 29C0.25 28.1996 0.898868 27.5508 1.69922 27.5508Z" fill="#F36F21" stroke="white" stroke-width="0.5"/>
<path d="M52.7891 27.5508H56.3008C57.1011 27.5508 57.75 28.1996 57.75 29C57.75 29.8004 57.1011 30.4492 56.3008 30.4492H52.7891C51.9887 30.4492 51.3398 29.8004 51.3398 29C51.3398 28.1996 51.9887 27.5508 52.7891 27.5508Z" fill="#F36F21" stroke="white" stroke-width="0.5"/>
</svg>
