<svg width="54" height="54" viewBox="0 0 54 54" fill="none" xmlns="http://www.w3.org/2000/svg">
<path d="M36.4922 22.5037C38.9711 22.5037 40.9883 24.5208 40.9883 26.9998C40.9883 29.4787 38.9711 31.4958 36.4922 31.4958C34.0133 31.4958 31.9961 29.4787 31.9961 26.9998C31.9961 24.5208 34.0133 22.5037 36.4922 22.5037ZM36.4922 25.1677C35.4818 25.1677 34.6602 25.9894 34.6602 26.9998C34.6602 28.0102 35.4818 28.8318 36.4922 28.8318C37.5026 28.8318 38.3242 28.0102 38.3242 26.9998C38.3242 25.9894 37.5026 25.1677 36.4922 25.1677Z" fill="#F36F21" stroke="white" stroke-width="0.5"/>
<path d="M26.1953 0.520508C26.6712 0.159886 27.3289 0.159852 27.8047 0.520508L40.0371 9.79688L40.1045 9.84766H49.2539C51.7328 9.84766 53.75 11.8648 53.75 14.3438V49.2539C53.75 51.7328 51.7328 53.75 49.2539 53.75H4.74609C2.2672 53.75 0.250043 51.7328 0.25 49.2539V14.3438L0.255859 14.1123C0.376705 11.7404 2.34476 9.84766 4.74609 9.84766H13.8955L13.9629 9.79688L26.1953 0.520508ZM4.74609 12.5117C3.73569 12.5117 2.91406 13.3333 2.91406 14.3438V49.2539C2.91411 50.2643 3.73572 51.0859 4.74609 51.0859H49.2539C50.2643 51.0859 51.0859 50.2643 51.0859 49.2539V14.3438C51.0859 13.3333 50.2643 12.5117 49.2539 12.5117H4.74609ZM26.8486 3.36816L18.8975 9.39844L18.3047 9.84766H35.6953L35.1025 9.39844L27.1514 3.36816L27 3.25391L26.8486 3.36816Z" fill="#F36F21" stroke="white" stroke-width="0.5"/>
<path d="M7.91016 16.1755H46.0898C46.8255 16.1755 47.4219 16.7719 47.4219 17.5076V46.0896C47.4219 46.8252 46.8255 47.4216 46.0898 47.4216H7.91016C7.17452 47.4216 6.57812 46.8252 6.57812 46.0896V17.5076C6.57812 16.7719 7.17452 16.1755 7.91016 16.1755ZM9.24219 44.7576H44.7578V41.0935H9.24219V44.7576ZM16.165 31.5896L11.0098 38.0232L10.6846 38.4294H30.5684L30.2461 38.0242L25.1328 31.5906L25.0576 31.4958H16.2402L16.165 31.5896ZM9.24219 35.9695L9.6875 35.4138L19.6328 23.0027C19.8856 22.6873 20.2677 22.5037 20.6719 22.5037H20.6748C21.0799 22.5045 21.4628 22.6895 21.7148 23.0066C27.5167 30.3074 30.5409 34.1135 33.8955 38.3347L33.9707 38.4294H44.7578V18.8396H9.24219V35.9695ZM20.4717 26.2156L18.7012 28.4255L18.375 28.8318H22.9404L22.6182 28.4265L20.8623 26.2166L20.668 25.9714L20.4717 26.2156Z" fill="#F36F21" stroke="white" stroke-width="0.5"/>
</svg>
