<svg width="18" height="20" viewBox="0 0 18 20" fill="none" xmlns="http://www.w3.org/2000/svg">
<path d="M4.19418 12.1246H13.5188C13.7754 12.1246 13.9854 11.9146 13.9854 11.658C13.9854 11.4013 13.7754 11.1913 13.5188 11.1913H4.19418C3.93751 11.1913 3.72751 11.4013 3.72751 11.658C3.73043 11.9146 3.93751 12.1246 4.19418 12.1246Z" fill="#4E5354"/>
<path d="M4.19418 8.39415H13.5188C13.7754 8.39415 13.9854 8.18415 13.9854 7.92748C13.9854 7.67082 13.7754 7.46082 13.5188 7.46082H4.19418C3.93751 7.46082 3.72751 7.67082 3.72751 7.92748C3.73043 8.18415 3.93751 8.39415 4.19418 8.39415Z" fill="#4E5354"/>
<path d="M4.19418 15.855H11.655C11.9117 15.855 12.1217 15.645 12.1217 15.3883C12.1217 15.1316 11.9117 14.9216 11.655 14.9216H4.19418C3.93751 14.9216 3.72751 15.1316 3.72751 15.3883C3.73043 15.645 3.93751 15.855 4.19418 15.855Z" fill="#4E5354"/>
<path d="M13.055 1.86667V0.466667C13.055 0.21 13.265 0 13.5217 0C13.7783 0 13.9883 0.21 13.9883 0.466667V1.86667H16.3188C17.0917 1.86667 17.7188 2.49375 17.7188 3.26667V16.3217C17.7188 18.1242 16.2575 19.5854 14.455 19.5854H3.26375C1.46125 19.5854 0 18.1242 0 16.3217V3.26667C0 2.49375 0.627083 1.86667 1.4 1.86667H3.73042V0.466667C3.73042 0.21 3.94042 0 4.19708 0C4.45375 0 4.66375 0.21 4.66375 0.466667V1.86667H8.39417V0.466667C8.39417 0.21 8.60417 0 8.86083 0C9.1175 0 9.3275 0.21 9.3275 0.466667V1.86667H13.055ZM13.055 2.8H9.32458V4.2C9.32458 4.45667 9.11458 4.66667 8.85792 4.66667C8.60125 4.66667 8.39125 4.45667 8.39125 4.2V2.8H4.66083V4.2C4.66083 4.45667 4.45083 4.66667 4.19417 4.66667C3.9375 4.66667 3.7275 4.45667 3.7275 4.2V2.8H1.39708C1.14042 2.8 0.930417 3.01 0.930417 3.26667V16.3217C0.930417 17.6079 1.97458 18.6521 3.26083 18.6521H14.4521C15.7383 18.6521 16.7825 17.6079 16.7825 16.3217V3.26667C16.7825 3.01 16.5725 2.8 16.3158 2.8H13.9854V4.2C13.9854 4.45667 13.7754 4.66667 13.5188 4.66667C13.2621 4.66667 13.0521 4.45667 13.0521 4.2V2.8H13.055Z" fill="#4E5354"/>
</svg>
