<svg width="21" height="21" viewBox="0 0 21 21" fill="none" xmlns="http://www.w3.org/2000/svg">
<path d="M13.9301 0.971639C14.199 0.956361 14.4282 1.15803 14.4465 1.42692C14.4618 1.69581 14.2601 1.92497 13.9912 1.94331C12.9401 2.01053 11.9868 2.60331 11.5865 3.35497C11.229 4.02719 11.4185 4.58636 12.2343 4.90108C14.3426 5.71081 14.8712 6.44414 14.7582 7.67247C14.6451 8.91303 13.6887 9.81747 11.7301 9.81747C11.0946 9.81747 10.6148 10.5477 10.6882 11.3697C10.7646 12.213 11.3573 12.6011 12.491 12.2161C16.011 11.0214 18.1712 13.3925 17.276 17.1141C17.2118 17.3739 16.9521 17.5358 16.6893 17.4716C16.4296 17.4075 16.2676 17.1477 16.3318 16.885C17.059 13.863 15.5465 12.2039 12.8026 13.1358C11.0701 13.7255 9.85096 12.9219 9.71957 11.4552C9.6004 10.123 10.4407 8.8458 11.7271 8.8458C13.1785 8.8458 13.7223 8.33247 13.7926 7.55942C13.8598 6.81692 13.6093 6.46858 11.8829 5.80553C10.5079 5.27692 10.1015 4.07303 10.7248 2.89664C11.2932 1.84553 12.549 1.06025 13.9301 0.971639ZM6.79846 18.5808C6.99401 18.7611 7.00929 19.0697 6.82901 19.2683C6.64873 19.4669 6.34318 19.4791 6.14457 19.2989C4.80318 18.0644 4.95901 16.7077 6.53262 15.565C8.32623 14.2602 8.17346 12.4269 6.09873 11.8402C3.23568 11.0244 1.96762 8.53719 3.70623 6.89331C3.99346 6.62442 4.1279 6.49608 4.25623 6.36775C5.53346 5.11497 5.59457 4.36942 3.98429 2.77136C3.79484 2.58192 3.79179 2.27636 3.98123 2.08386C4.17068 1.89442 4.47623 1.89136 4.66568 2.08081C6.6854 4.08525 6.5754 5.45108 4.93457 7.06136C4.79707 7.19886 4.65346 7.33331 4.36929 7.59914C3.28457 8.62275 4.12484 10.2666 6.35846 10.8991C9.26734 11.7241 9.50568 14.5933 7.0979 16.3472C6.00401 17.1477 5.93068 17.7833 6.79846 18.5808Z" fill="#222528"/>
<path d="M10.1994 20.3958C4.56806 20.3958 0 15.8308 0 10.1964C0 4.56194 4.56806 0 10.1994 0C15.8308 0 20.3958 4.565 20.3958 10.1994C20.3958 15.8339 15.8308 20.3958 10.1994 20.3958ZM10.1994 19.4242C15.2961 19.4242 19.4272 15.2931 19.4272 10.1964C19.4272 5.09972 15.2961 0.968611 10.1994 0.968611C5.10278 0.968611 0.971667 5.09972 0.971667 10.1964C0.971667 15.2931 5.10278 19.4242 10.1994 19.4242Z" fill="#222528"/>
</svg>
