<svg width="51" height="51" viewBox="0 0 51 51" fill="none" xmlns="http://www.w3.org/2000/svg">
<path d="M43.4598 7.35686C33.5597 -2.45229 17.3671 -2.45229 7.46703 7.35686C2.60087 12.1357 0 18.4236 0 25.1307C0 39.048 11.4103 50.2824 25.4215 50.2824C32.2173 50.2824 38.5936 47.6834 43.3759 42.9045C53.4438 33.0954 53.4438 17.166 43.4598 7.35686ZM25.4215 48.1864C12.501 48.1864 2.09748 37.8742 2.09748 25.1307C2.09748 12.3872 12.5849 2.07502 25.4215 2.07502C38.2581 2.07502 48.7455 12.471 48.7455 25.1307C48.7455 37.8742 38.342 48.1864 25.4215 48.1864Z" fill="black"/>
<path d="M25.4218 6.26697C14.9343 6.26697 6.29272 14.7347 6.29272 25.1307C6.29272 35.5267 14.8504 43.9945 25.4218 43.9945C35.9092 43.9945 44.5508 35.5267 44.5508 25.1307C44.5508 14.7347 35.9931 6.26697 25.4218 6.26697ZM25.4218 41.8985C16.1089 41.8985 8.4741 34.353 8.4741 25.1307C8.4741 15.9084 16.1089 8.36294 25.4218 8.36294C34.7346 8.36294 42.3694 15.9084 42.3694 25.1307C42.4533 34.4368 34.9024 41.8985 25.4218 41.8985Z" fill="black"/>
<path d="M25.4213 14.6508C26.0086 14.6508 26.5119 14.1478 26.5119 13.5609V10.3751C26.5119 9.78818 26.0086 9.28516 25.4213 9.28516C24.834 9.28516 24.3306 9.78818 24.3306 10.3751V13.5609C24.4145 14.2316 24.834 14.6508 25.4213 14.6508Z" fill="black"/>
<path d="M25.4213 35.6106C24.834 35.6106 24.3306 36.1136 24.3306 36.7005V39.8864C24.3306 40.4733 24.834 40.9763 25.4213 40.9763C26.0086 40.9763 26.5119 40.4733 26.5119 39.8864V36.7005C26.5119 36.1136 26.0086 35.6106 25.4213 35.6106Z" fill="black"/>
<path d="M34.4826 17.7529L36.7479 15.4893C37.1674 15.0701 37.1674 14.3994 36.7479 13.9802C36.3284 13.561 35.6572 13.561 35.2377 13.9802L33.0563 16.2438C32.6368 16.663 32.6368 17.3337 33.0563 17.7529C33.3919 18.1721 33.9792 18.1721 34.4826 17.7529Z" fill="black"/>
<path d="M16.4444 32.5924L14.1791 34.7722C13.7596 35.1914 13.7596 35.8621 14.1791 36.2813C14.5986 36.7005 15.2698 36.7005 15.6893 36.2813L17.8707 34.0176C18.2902 33.5984 18.2902 32.9277 17.8707 32.5085C17.5351 32.1732 16.8639 32.1732 16.4444 32.5924Z" fill="black"/>
<path d="M40.272 24.1246H37.0839C36.4966 24.1246 35.9932 24.6277 35.9932 25.2146C35.9932 25.8014 36.4966 26.3044 37.0839 26.3044H40.272C40.8593 26.3044 41.3627 25.8014 41.3627 25.2146C41.3627 24.6277 40.8593 24.1246 40.272 24.1246Z" fill="black"/>
<path d="M14.8505 25.1307C14.8505 24.5438 14.3471 24.0408 13.7598 24.0408H10.5716C9.98434 24.0408 9.48096 24.5438 9.48096 25.1307C9.48096 25.7176 9.98434 26.2206 10.5716 26.2206H13.7598C14.431 26.2206 14.8505 25.7176 14.8505 25.1307Z" fill="black"/>
<path d="M34.4828 32.5925C34.0633 32.1733 33.3921 32.1733 32.9726 32.5925C32.5531 33.0117 32.5531 33.6824 32.9726 34.1016L35.2379 36.3652C35.6574 36.7844 36.3286 36.7844 36.748 36.3652C37.1675 35.946 37.1675 35.2753 36.748 34.8561L34.4828 32.5925Z" fill="black"/>
<path d="M16.4445 17.7529C16.864 18.1721 17.5352 18.1721 17.9547 17.7529C18.3742 17.3337 18.3742 16.663 17.9547 16.2438L15.7733 13.9802C15.3538 13.561 14.6826 13.561 14.2631 13.9802C13.8436 14.3994 13.8436 15.0701 14.2631 15.4893L16.4445 17.7529Z" fill="black"/>
<path d="M32.8886 26.2206C33.4759 26.2206 33.9793 25.7176 33.9793 25.1307C33.9793 24.5438 33.4759 24.0408 32.8886 24.0408C28.4419 24.0408 28.6097 24.0408 28.4419 24.0408C28.1063 23.1185 27.4351 22.4478 26.5123 22.1125C26.5123 21.9448 26.5123 22.1125 26.5123 17.7529C26.5123 17.166 26.0089 16.663 25.4216 16.663C24.8343 16.663 24.3309 17.166 24.3309 17.7529C24.3309 22.1963 24.3309 21.9448 24.3309 22.1125C23.0724 22.5317 22.2334 23.7054 22.2334 25.0469C22.2334 26.8075 23.6597 28.2327 25.4216 28.2327C26.764 28.2327 27.9385 27.3943 28.358 26.1367C28.4419 26.1367 28.4419 26.1367 28.5258 26.1367L32.8886 26.2206ZM25.4216 26.2206C24.8343 26.2206 24.3309 25.7176 24.3309 25.1307C24.3309 24.5438 24.8343 24.0408 25.4216 24.0408C26.0089 24.0408 26.5123 24.5438 26.5123 25.1307C26.5123 25.7176 26.0089 26.2206 25.4216 26.2206Z" fill="black"/>
</svg>
