<svg width="97" height="40" viewBox="0 0 97 40" fill="none" xmlns="http://www.w3.org/2000/svg">
<g clip-path="url(#clip0_1_3440)">
<path d="M97 20.5757C97 13.7703 93.6588 8.40037 87.2731 8.40037C80.8601 8.40037 76.9801 13.7705 76.9801 20.5226C76.9801 28.5241 81.5609 32.5649 88.1351 32.5649C91.3416 32.5649 93.7666 31.8471 95.5988 30.837V25.5202C93.7668 26.4241 91.665 26.9824 88.9975 26.9824C86.3838 26.9824 84.0666 26.0785 83.7703 22.9417H96.9462C96.9462 22.5959 97 21.2136 97 20.5757ZM83.6894 18.0503C83.6894 15.0464 85.5487 13.7968 87.2462 13.7968C88.8897 13.7968 90.6412 15.0464 90.6412 18.0503H83.6894ZM66.5799 8.40037C63.9391 8.40037 62.2416 9.62318 61.2987 10.474L60.9482 8.82579H55.0206V39.8221L61.7566 38.4133L61.7837 30.8901C62.7537 31.5813 64.1816 32.5649 66.5528 32.5649C71.3759 32.5649 75.7678 28.7368 75.7678 20.3099C75.7409 12.6006 71.295 8.40037 66.5797 8.40037H66.5799ZM64.9631 26.7164C63.3734 26.7164 62.4301 26.1583 61.7837 25.4671L61.7566 15.6045C62.4572 14.8336 63.4272 14.3021 64.9631 14.3021C67.415 14.3021 69.1125 17.0135 69.1125 20.4959C69.1125 24.0581 67.4419 26.7164 64.9631 26.7164ZM45.7516 6.83196L52.5147 5.39645V0L45.7516 1.40897V6.83196ZM45.7516 8.85234H52.5147V32.1129H45.7516V8.85234ZM38.5037 10.8194L38.0725 8.85234H32.2525V32.1129H38.9887V16.349C40.5782 14.3021 43.2728 14.6742 44.1081 14.9665V8.85234C43.2459 8.53327 40.0934 7.94841 38.5037 10.8194ZM25.0313 3.08374L18.4569 4.46598L18.43 25.7594C18.43 29.694 21.4209 32.5914 25.4087 32.5914C27.6181 32.5914 29.2347 32.1927 30.1238 31.7142V26.3178C29.2618 26.6634 25.0044 27.8862 25.0044 23.9518V14.5146H30.1238V8.85234H25.0044L25.0313 3.08374ZM6.8169 15.6045C6.8169 14.5679 7.6791 14.169 9.10739 14.169C11.155 14.169 13.7416 14.7806 15.7894 15.8705V9.62318C13.5531 8.74598 11.3437 8.40037 9.10739 8.40037C3.6375 8.40037 0 11.2183 0 15.9237C0 23.2606 10.2388 22.091 10.2388 25.2546C10.2388 26.4772 9.16119 26.8761 7.6522 26.8761C5.4159 26.8761 2.5597 25.9721 0.296305 24.7493V31.0763C2.8022 32.1396 5.335 32.5914 7.6522 32.5914C13.2566 32.5914 17.1097 29.8535 17.1097 25.095C17.0828 17.1731 6.8169 18.5819 6.8169 15.6045Z" fill="#635BFF"/>
</g>
<defs>
<clipPath id="clip0_1_3440">
<rect width="97" height="40" fill="white"/>
</clipPath>
</defs>
</svg>
