<svg width="48" height="57" viewBox="0 0 48 57" fill="none" xmlns="http://www.w3.org/2000/svg">
<g clip-path="url(#clip0_1_3442)">
<path d="M40.7193 4.43679C38.1067 1.4392 33.3839 0.154053 27.3421 0.154053H9.8071C9.20932 0.154075 8.63115 0.368754 8.17655 0.759493C7.72194 1.15023 7.42072 1.6914 7.32703 2.2857L0.0257828 48.8987C-0.119342 49.8178 0.58772 50.6502 1.51322 50.6502H12.3387L15.0575 33.2914L14.9731 33.835C15.1668 32.608 16.2093 31.703 17.4438 31.703H22.588C32.6939 31.703 40.607 27.5711 42.9185 15.6182C42.9871 15.2647 43.0465 14.9206 43.0979 14.5845C42.8062 14.429 42.8062 14.429 43.0979 14.5845C43.7862 10.1666 43.0932 7.15939 40.7193 4.43679Z" fill="#27346A"/>
<path d="M19.1997 12.993C19.4957 12.8512 19.8194 12.7777 20.1472 12.7779H33.8943C35.5222 12.7779 37.0405 12.8845 38.428 13.1093C38.8163 13.1716 39.2025 13.246 39.5862 13.3324C40.13 13.4532 40.6676 13.601 41.1968 13.7754C41.879 14.0047 42.5142 14.2717 43.0981 14.5845C43.7862 10.1649 43.0932 7.15939 40.7193 4.43679C38.1052 1.4392 33.3839 0.154053 27.3421 0.154053H9.8056C8.57091 0.154053 7.52053 1.05888 7.32703 2.2857L0.0257838 48.897C-0.119341 49.8177 0.587721 50.6489 1.51172 50.6489H12.3387L17.9793 14.6426C18.0347 14.2887 18.1748 13.9537 18.3874 13.6663C18.6 13.379 18.8788 13.1479 19.1997 12.993Z" fill="#27346A"/>
<path d="M42.9182 15.6182C40.6067 27.5693 32.6938 31.703 22.5877 31.703H17.442C16.2075 31.703 15.1648 32.608 14.973 33.835L11.5907 55.4186C11.4643 56.223 12.0823 56.9519 12.8908 56.9519H22.0164C22.5392 56.9518 23.0447 56.7639 23.4421 56.422C23.8396 56.0802 24.1028 55.6069 24.1845 55.0871L24.2734 54.619L25.9933 43.6464L26.1041 43.0399C26.1858 42.5202 26.449 42.0469 26.8464 41.7051C27.2438 41.3632 27.7493 41.1753 28.272 41.1752H29.6377C38.4778 41.1752 45.3997 37.56 47.4225 27.1045C48.2668 22.7351 47.8299 19.0871 45.5964 16.5247C44.919 15.7486 44.0777 15.1077 43.0976 14.5845C43.0445 14.9223 42.987 15.2647 42.9182 15.6182Z" fill="#2790C3"/>
<path d="M40.6788 13.6135C40.3184 13.5076 39.9546 13.4138 39.5879 13.3323C39.204 13.2473 38.8178 13.1734 38.4297 13.1107C37.0407 12.8844 35.5235 12.7776 33.8941 12.7776H20.1487C19.8206 12.7768 19.4967 12.851 19.2012 12.9945C18.8799 13.1489 18.6008 13.3798 18.3881 13.6672C18.1754 13.9547 18.0356 14.2899 17.9806 14.6441L15.059 33.2914L14.9746 33.8349C15.1668 32.6079 16.2093 31.7029 17.444 31.7029H22.5897C32.6956 31.7029 40.6085 27.571 42.92 15.6182C42.9888 15.2646 43.0465 14.9221 43.0996 14.5844C42.5142 14.2734 41.8807 14.0046 41.1984 13.7768C41.0262 13.7193 40.853 13.6649 40.679 13.6135" fill="#1F264F"/>
</g>
<defs>
<clipPath id="clip0_1_3442">
<rect width="48" height="57" fill="white"/>
</clipPath>
</defs>
</svg>
