<svg width="19" height="18" viewBox="0 0 19 18" fill="none" xmlns="http://www.w3.org/2000/svg">
<path d="M6.74476 6.24962C6.86143 5.88295 6.97532 5.53295 7.08921 5.18017C7.45865 4.03573 7.8281 2.89406 8.19754 1.74962C8.30865 1.40795 8.41143 1.06628 8.5281 0.727393C8.59754 0.524616 8.66976 0.321838 8.8281 0.16906C9.04476 -0.0420511 9.3531 -0.0559399 9.59476 0.130171C9.71421 0.221838 9.79754 0.332949 9.84476 0.477393C10.1087 1.30517 10.3781 2.13295 10.6448 2.95795C10.9837 4.00517 11.3225 5.05517 11.6614 6.10239C11.6753 6.14684 11.6837 6.19128 11.7003 6.24684C11.7364 6.24684 11.7781 6.24684 11.8198 6.24684C13.542 6.24406 15.2642 6.24128 16.9864 6.2385C17.2781 6.2385 17.567 6.22462 17.8559 6.24128C18.1392 6.25795 18.3281 6.42462 18.4198 6.69128C18.5087 6.94962 18.4281 7.17462 18.2281 7.34406C18.0337 7.50795 17.8198 7.65239 17.6114 7.80239C16.5892 8.54406 15.567 9.28573 14.542 10.0246C14.1503 10.3079 13.7559 10.5885 13.3642 10.8718C13.2364 10.9635 13.2364 10.9635 13.2864 11.1135C13.642 12.1941 13.9948 13.2718 14.3475 14.3524C14.6087 15.1524 14.8698 15.9496 15.1309 16.7496C15.2225 17.0302 15.1337 17.3107 14.9031 17.4774C14.6725 17.6441 14.3809 17.6385 14.1392 17.4635C12.9448 16.5913 11.7475 15.7191 10.5531 14.8496C10.1281 14.5385 9.70032 14.2302 9.2781 13.9191C9.23643 13.8885 9.21143 13.8941 9.17532 13.9218C8.73088 14.2468 8.28365 14.5718 7.83643 14.8968C6.94754 15.5441 6.06143 16.1885 5.17254 16.8357C4.88643 17.0441 4.59754 17.2552 4.31143 17.4663C4.11143 17.6135 3.89476 17.6468 3.66699 17.5441C3.43088 17.4357 3.29476 17.2441 3.28643 16.9829C3.28365 16.8802 3.31143 16.7746 3.34199 16.6746C3.50865 16.1524 3.68087 15.6329 3.8531 15.1107C4.19476 14.0746 4.53643 13.0385 4.87532 12.0024C4.98365 11.6774 5.08643 11.3496 5.19754 11.0246C5.21699 10.9691 5.18643 10.9524 5.15588 10.9302C4.93921 10.7718 4.72254 10.6163 4.50588 10.4579C3.70587 9.87739 2.90865 9.29962 2.10865 8.71906C1.52254 8.29684 0.93643 7.87462 0.350319 7.45239C0.21143 7.35239 0.0892082 7.24406 0.0336526 7.07462C-0.0857919 6.71073 0.122542 6.34128 0.503097 6.26073C0.605875 6.2385 0.71143 6.23573 0.816986 6.23573C2.72532 6.2385 4.63088 6.24128 6.53921 6.24684C6.60865 6.24962 6.6781 6.24962 6.74476 6.24962Z" fill="#FFB800"/>
</svg>
