<svg width="19" height="20" viewBox="0 0 19 20" fill="none" xmlns="http://www.w3.org/2000/svg">
<path d="M11.2422 6.33C11.5072 6.33 11.7772 6.33 12.0422 6.33C12.3772 6.33 12.6722 6.61 12.6772 6.935C12.6872 7.29 12.4172 7.595 12.0672 7.595C11.2022 7.6 10.3372 7.6 9.47222 7.595C9.09222 7.59 8.80222 7.215 8.88722 6.85C9.03722 6.22 9.19722 5.595 9.35222 4.97C9.41222 4.735 9.46222 4.495 9.52722 4.26C9.61222 3.97 9.85222 3.795 10.1422 3.795C10.5272 3.79 10.8372 4.16 10.7572 4.535C10.7222 4.72 10.6672 4.905 10.6222 5.09C10.6122 5.125 10.6072 5.16 10.5972 5.215C11.2422 4.8 11.9322 4.575 12.6722 4.47C12.6722 4.42 12.6722 4.375 12.6722 4.33C12.6722 3.525 12.6722 2.72 12.6722 1.915C12.6722 1.7 12.5872 1.535 12.4272 1.4C12.3022 1.295 12.1522 1.265 11.9922 1.265C10.7922 1.265 9.58722 1.265 8.38722 1.265C6.24722 1.265 4.10222 1.265 1.96222 1.265C1.66722 1.265 1.44222 1.38 1.32222 1.655C1.27722 1.755 1.26722 1.88 1.26722 1.995C1.26222 3.31 1.26222 4.63 1.26222 5.945C1.26222 8.085 1.26222 10.23 1.26222 12.37C1.26222 13.93 1.26222 15.485 1.26222 17.045C1.26222 17.29 1.34222 17.49 1.54222 17.635C1.66222 17.72 1.79222 17.745 1.93722 17.745C2.95222 17.745 3.96222 17.745 4.97722 17.745C6.42722 17.745 7.88222 17.745 9.33222 17.745C10.2372 17.745 11.1422 17.745 12.0472 17.745C12.3872 17.745 12.6722 17.46 12.6722 17.12C12.6722 16.7 12.6722 16.275 12.6722 15.855C12.6722 15.525 12.9122 15.255 13.2422 15.215C13.5522 15.18 13.8522 15.395 13.9222 15.71C13.9322 15.755 13.9372 15.8 13.9372 15.845C13.9372 16.275 13.9372 16.705 13.9372 17.13C13.9372 18.07 13.2072 18.885 12.2722 18.995C12.1772 19.005 12.0822 19.015 11.9872 19.015C8.63222 19.015 5.27222 19.015 1.91722 19.015C1.01722 19.015 0.262222 18.425 0.0522222 17.55C0.0172222 17.405 0.00222222 17.25 0.00222222 17.1C-0.00277778 12.04 0.00222222 6.98 0.00222222 1.92C0.00222222 0.85 0.842222 0.005 1.91722 0C3.75722 0 5.60222 0 7.44222 0C8.96722 0 10.4922 0 12.0172 0C13.1022 0 13.9422 0.845 13.9422 1.925C13.9422 2.74 13.9422 3.555 13.9422 4.37C13.9422 4.4 13.9422 4.435 13.9422 4.465C14.1822 4.52 14.4172 4.555 14.6422 4.62C16.2672 5.1 17.4372 6.115 18.0322 7.7C18.7022 9.485 18.4272 11.165 17.2572 12.665C16.5022 13.635 15.4972 14.235 14.2872 14.47C12.8622 14.745 11.5522 14.455 10.3672 13.615C9.33222 12.88 8.67222 11.885 8.37222 10.655C8.28222 10.28 8.23722 9.895 8.23722 9.51C8.24222 9.15 8.51722 8.87 8.87722 8.87C9.22222 8.87 9.50222 9.155 9.50722 9.515C9.51722 11.255 10.6872 12.785 12.3822 13.19C13.8372 13.535 15.1072 13.15 16.1322 12.045C16.7972 11.33 17.1222 10.465 17.1072 9.495C17.0822 8.05 16.4272 6.945 15.1822 6.205C14.3022 5.68 13.3522 5.595 12.3622 5.825C11.9872 5.915 11.6322 6.075 11.2972 6.27C11.2722 6.285 11.2522 6.305 11.2272 6.32C11.2372 6.32 11.2372 6.325 11.2422 6.33Z" fill="#222528"/>
<path d="M5.08703 13.935C4.45203 13.935 3.82203 13.935 3.18703 13.935C2.90703 13.935 2.66203 13.76 2.57703 13.515C2.48703 13.235 2.56703 12.97 2.80203 12.795C2.91203 12.71 3.03703 12.67 3.17203 12.67C4.44203 12.67 5.71203 12.67 6.98203 12.67C7.33703 12.67 7.61203 12.955 7.61203 13.31C7.61203 13.655 7.32703 13.935 6.97703 13.935C6.34703 13.935 5.71703 13.935 5.08703 13.935Z" fill="#222528"/>
<path d="M5.07699 7.59996C4.45199 7.59996 3.82199 7.59996 3.19699 7.59996C2.82699 7.59996 2.54199 7.31996 2.54199 6.96496C2.54199 6.60996 2.82699 6.32996 3.19699 6.32996C4.45199 6.32996 5.71199 6.32996 6.96699 6.32996C7.30199 6.32996 7.58199 6.57996 7.60699 6.89996C7.63699 7.22996 7.41199 7.52496 7.08199 7.58996C7.03699 7.59996 6.99199 7.59996 6.94199 7.59996C6.32699 7.59996 5.70199 7.59996 5.07699 7.59996Z" fill="#222528"/>
<path d="M5.07199 10.77C4.44699 10.77 3.81699 10.77 3.19199 10.77C2.83199 10.77 2.54199 10.49 2.54199 10.14C2.54199 9.785 2.82199 9.505 3.18699 9.505C4.44199 9.505 5.70199 9.505 6.95699 9.505C7.32699 9.505 7.61199 9.785 7.61199 10.14C7.61199 10.495 7.32699 10.77 6.95199 10.77C6.32199 10.77 5.69699 10.765 5.07199 10.77Z" fill="#222528"/>
<path d="M5.06765 4.43004C4.43765 4.43004 3.80765 4.43004 3.17765 4.43004C2.85265 4.43004 2.58765 4.19504 2.54265 3.87504C2.50265 3.58504 2.68265 3.29004 2.97265 3.20004C3.04265 3.17504 3.12265 3.16504 3.19765 3.16504C4.45265 3.16504 5.70265 3.16504 6.95765 3.16504C7.31765 3.16504 7.60765 3.44504 7.60765 3.78504C7.60765 4.15504 7.32765 4.43504 6.95265 4.43504C6.32765 4.43004 5.69765 4.43004 5.06765 4.43004Z" fill="#222528"/>
<path d="M13.9476 10.135C13.9476 10.18 13.9476 10.215 13.9476 10.25C13.9476 10.635 13.9476 11.02 13.9476 11.405C13.9476 11.755 13.6676 12.03 13.3176 12.03C12.9726 12.03 12.6826 11.75 12.6826 11.405C12.6826 10.765 12.6826 10.125 12.6826 9.48505C12.6826 9.15005 12.9526 8.86504 13.2876 8.86504C13.9426 8.85504 14.5926 8.85504 15.2476 8.86504C15.5926 8.87004 15.8526 9.16004 15.8526 9.52004C15.8476 9.84504 15.5676 10.125 15.2326 10.13C14.8076 10.135 14.3876 10.135 13.9476 10.135Z" fill="#222528"/>
</svg>
