<svg width="56" height="56" viewBox="0 0 56 56" fill="none" xmlns="http://www.w3.org/2000/svg">
<path d="M34.123 2L34.2891 2.00977C34.4532 2.02911 34.613 2.07655 34.7627 2.14844C34.9623 2.24436 35.1388 2.38271 35.2783 2.55469L35.2793 2.55664C35.4207 2.72785 35.5227 2.92833 35.5771 3.14355C35.6316 3.35857 35.6375 3.58315 35.5947 3.80078L34.2646 10.4512L34.2051 10.75H37.165V13.75H33.875V19.5H49.875C50.2728 19.5 50.6542 19.6581 50.9355 19.9395C51.2169 20.2208 51.375 20.6022 51.375 21V44H52.5C52.8978 44 53.2792 44.1581 53.5605 44.4395C53.8419 44.7208 54 45.1022 54 45.5V52.5C54 52.8978 53.8419 53.2792 53.5605 53.5605C53.2792 53.8419 52.8978 54 52.5 54H3.5C3.10217 54 2.72076 53.8419 2.43945 53.5605C2.15815 53.2792 2 52.8978 2 52.5V45.5C2 45.1022 2.15815 44.7208 2.43945 44.4395C2.72076 44.1581 3.10217 44 3.5 44H4.625V21C4.625 20.6022 4.78315 20.2208 5.06445 19.9395C5.34576 19.6581 5.72718 19.5 6.125 19.5H22.125V13.75H18.835V10.75H21.7949L21.7354 10.4512L20.4053 3.80078C20.3625 3.58315 20.3684 3.35858 20.4229 3.14355C20.4773 2.92832 20.5793 2.72785 20.7207 2.55664L20.7217 2.55469C20.8612 2.38271 21.0377 2.24436 21.2373 2.14844C21.387 2.07655 21.5468 2.02911 21.7109 2.00977L21.877 2H34.123ZM5 51H51V47H5V51ZM25.125 22.7539C25.1291 22.988 25.0781 23.2207 24.9766 23.4316C24.9004 23.5898 24.7969 23.7326 24.6719 23.8545L24.54 23.9697L14.5303 31.6689C14.2882 31.8553 14.0922 32.0953 13.957 32.3691C13.8219 32.6429 13.7508 32.9437 13.75 33.249V44H42.25V33.25C42.2548 32.9393 42.1875 32.6316 42.0527 32.3516C41.9173 32.0703 41.7171 31.8252 41.4697 31.6348L31.46 23.9346C31.2786 23.7949 31.1317 23.6154 31.0303 23.4102C30.9541 23.256 30.9046 23.0899 30.8848 22.9199L30.875 22.749V13.75H25.125V22.7539ZM35.0918 22.9473L43.2998 29.2998V29.3008C43.9048 29.7665 44.3954 30.3643 44.7334 31.0488C45.0292 31.6479 45.2015 32.2998 45.2412 32.9648L45.25 33.251V44H48.375V22.5H34.5137L35.0918 22.9473ZM23.7646 5.29883L24.8145 10.5488L24.8555 10.75H31.1445L31.1855 10.5488L32.2354 5.29883L32.2949 5H23.7051L23.7646 5.29883ZM10.75 33.249C10.7467 32.4799 10.9206 31.7201 11.2588 31.0293C11.597 30.3384 12.0907 29.7348 12.7002 29.2656L20.9072 22.9482L21.4893 22.5H7.625V44H10.75V33.249Z" fill="#F36F21" stroke="white" stroke-width="0.5"/>
<path d="M25.125 35.25V38.25H20.375V35.25H25.125Z" fill="#F36F21" stroke="white" stroke-width="0.5"/>
<path d="M35.625 35.25V38.25H30.875V35.25H35.625Z" fill="#F36F21" stroke="white" stroke-width="0.5"/>
</svg>
