<svg width="53" height="53" viewBox="0 0 53 53" fill="none" xmlns="http://www.w3.org/2000/svg">
<path d="M9.10938 33.5254C10.3211 33.5254 11.483 34.0065 12.3398 34.8633C13.1967 35.7201 13.6777 36.882 13.6777 38.0938C13.6724 39.0383 13.3748 39.9583 12.8252 40.7266L12.5801 41.0684L12.9346 41.2959C13.9243 41.9312 14.7387 42.8049 15.3027 43.8369C15.8668 44.8691 16.1621 46.0269 16.1621 47.2031C16.1621 48.1952 15.7689 49.1471 15.0674 49.8486C14.3659 50.5501 13.414 50.9434 12.4219 50.9434H5.79688C4.8048 50.9434 3.85287 50.5501 3.15137 49.8486C2.44986 49.1471 2.05664 48.1952 2.05664 47.2031C2.05668 46.0269 2.35199 44.8691 2.91602 43.8369C3.48001 42.8049 4.29444 41.9312 5.28418 41.2959L5.63867 41.0684L5.39355 40.7266C4.84396 39.9583 4.54631 39.0383 4.54102 38.0938C4.54102 36.882 5.0221 35.7201 5.87891 34.8633C6.73571 34.0065 7.89767 33.5254 9.10938 33.5254ZM9.10938 42.6621C7.90513 42.6621 6.74997 43.1407 5.89844 43.9922C5.04691 44.8437 4.56836 45.9989 4.56836 47.2031C4.56836 47.5288 4.69839 47.841 4.92871 48.0713C5.15903 48.3016 5.47116 48.4316 5.79688 48.4316H12.4219C12.7476 48.4316 13.0597 48.3016 13.29 48.0713C13.5204 47.841 13.6504 47.5288 13.6504 47.2031C13.6504 45.9989 13.1718 44.8437 12.3203 43.9922C11.4688 43.1407 10.3136 42.6621 9.10938 42.6621ZM9.51074 36.0771C9.11187 35.9978 8.698 36.0387 8.32227 36.1943C7.94667 36.35 7.6253 36.6131 7.39941 36.9512C7.17347 37.2893 7.05273 37.6871 7.05273 38.0938C7.05273 38.6391 7.26965 39.1622 7.65527 39.5479C8.0409 39.9335 8.56402 40.1504 9.10938 40.1504C9.51606 40.1504 9.9138 40.0297 10.252 39.8037C10.59 39.5778 10.8531 39.2565 11.0088 38.8809C11.1644 38.5051 11.2053 38.0913 11.126 37.6924C11.0466 37.2936 10.851 36.9272 10.5635 36.6396C10.276 36.3521 9.90953 36.1565 9.51074 36.0771Z" fill="black" stroke="#149AA3" stroke-width="0.8"/>
<path d="M43.8906 33.5254C45.1023 33.5254 46.2643 34.0065 47.1211 34.8633C47.9779 35.7201 48.459 36.882 48.459 38.0938C48.4537 39.0383 48.156 39.9583 47.6064 40.7266L47.3613 41.0684L47.7158 41.2959C48.7056 41.9312 49.52 42.8049 50.084 43.8369C50.648 44.8691 50.9433 46.0269 50.9434 47.2031C50.9434 48.1952 50.5501 49.1471 49.8486 49.8486C49.1471 50.5501 48.1952 50.9434 47.2031 50.9434H40.5781C39.586 50.9434 38.6341 50.5501 37.9326 49.8486C37.2311 49.1471 36.8379 48.1952 36.8379 47.2031C36.8379 46.0269 37.1332 44.8691 37.6973 43.8369C38.2613 42.8049 39.0757 41.9312 40.0654 41.2959L40.4199 41.0684L40.1748 40.7266C39.6252 39.9583 39.3276 39.0383 39.3223 38.0938C39.3223 36.882 39.8033 35.7201 40.6602 34.8633C41.517 34.0065 42.6789 33.5254 43.8906 33.5254ZM43.8906 42.6621C42.6864 42.6621 41.5312 43.1407 40.6797 43.9922C39.8282 44.8437 39.3496 45.9989 39.3496 47.2031C39.3496 47.5288 39.4796 47.841 39.71 48.0713C39.9403 48.3016 40.2524 48.4316 40.5781 48.4316H47.2031C47.5288 48.4316 47.841 48.3016 48.0713 48.0713C48.3016 47.841 48.4316 47.5288 48.4316 47.2031C48.4316 45.9989 47.9531 44.8437 47.1016 43.9922C46.25 43.1407 45.0949 42.6621 43.8906 42.6621ZM44.292 36.0771C43.8931 35.9978 43.4792 36.0387 43.1035 36.1943C42.7279 36.35 42.4065 36.6131 42.1807 36.9512C41.9547 37.2893 41.834 37.6871 41.834 38.0938C41.834 38.6391 42.0509 39.1622 42.4365 39.5479C42.8221 39.9335 43.3453 40.1504 43.8906 40.1504C44.2973 40.1504 44.6951 40.0297 45.0332 39.8037C45.3713 39.5778 45.6344 39.2565 45.79 38.8809C45.9457 38.5051 45.9866 38.0913 45.9072 37.6924C45.8279 37.2936 45.6322 36.9272 45.3447 36.6396C45.0572 36.3521 44.6908 36.1565 44.292 36.0771Z" fill="black" stroke="#149AA3" stroke-width="0.8"/>
<path d="M9.9375 2.05664H43.0625C43.3957 2.05664 43.7156 2.18824 43.9512 2.42383C44.1868 2.65942 44.3184 2.97932 44.3184 3.3125V28.1562C44.3184 28.4894 44.1868 28.8093 43.9512 29.0449C43.7156 29.2805 43.3957 29.4121 43.0625 29.4121H9.9375C9.60432 29.4121 9.28442 29.2805 9.04883 29.0449C8.81324 28.8093 8.68164 28.4894 8.68164 28.1562V3.3125C8.68164 2.97932 8.81324 2.65942 9.04883 2.42383C9.28442 2.18824 9.60432 2.05664 9.9375 2.05664ZM11.1934 26.9004H19.4473V25.6719C19.4473 24.4956 19.7426 23.3379 20.3066 22.3057C20.8706 21.2736 21.6851 20.4 22.6748 19.7646L23.0293 19.5371L22.7842 19.1953C22.2346 18.427 21.9369 17.5071 21.9316 16.5625C21.9316 15.3508 22.4127 14.1888 23.2695 13.332C24.1263 12.4752 25.2883 11.9941 26.5 11.9941C27.7117 11.9941 28.8737 12.4752 29.7305 13.332C30.5873 14.1888 31.0684 15.3508 31.0684 16.5625C31.0631 17.5071 30.7654 18.427 30.2158 19.1953L29.9707 19.5371L30.3252 19.7646C31.3149 20.4 32.1294 21.2736 32.6934 22.3057C33.2574 23.3379 33.5527 24.4956 33.5527 25.6719V26.9004H41.8066V4.56836H11.1934V26.9004ZM26.5 21.1309C25.2958 21.1309 24.1406 21.6094 23.2891 22.4609C22.4375 23.3125 21.959 24.4676 21.959 25.6719V26.9004H31.041V25.6719C31.041 24.4676 30.5625 23.3125 29.7109 22.4609C28.8594 21.6094 27.7042 21.1309 26.5 21.1309ZM26.9014 14.5459C26.5025 14.4666 26.0886 14.5075 25.7129 14.6631C25.3373 14.8187 25.0159 15.0819 24.79 15.4199C24.5641 15.7581 24.4434 16.1558 24.4434 16.5625C24.4434 17.1079 24.6603 17.631 25.0459 18.0166C25.4315 18.4022 25.9546 18.6191 26.5 18.6191C26.9067 18.6191 27.3044 18.4984 27.6426 18.2725C27.9806 18.0466 28.2438 17.7252 28.3994 17.3496C28.555 16.9739 28.5959 16.56 28.5166 16.1611C28.4372 15.7623 28.2416 15.3959 27.9541 15.1084C27.6666 14.8209 27.3002 14.6253 26.9014 14.5459Z" fill="black" stroke="#149AA3" stroke-width="0.8"/>
<path d="M39.3496 7.02539V9.53711H33.5254V7.02539H39.3496Z" fill="black" stroke="#149AA3" stroke-width="0.8"/>
<path d="M33.5527 45.1191V47.6309H19.4473V45.1191H33.5527Z" fill="black" stroke="#149AA3" stroke-width="0.8"/>
</svg>
