<svg width="32" height="27" viewBox="0 0 32 27" fill="none" xmlns="http://www.w3.org/2000/svg">
<path d="M15.5354 26.8621C15.1553 26.8621 14.7683 26.7515 14.4435 26.5373C13.9943 26.2401 13.3239 25.8324 12.4739 25.3072L11.4718 24.6921C6.22659 21.2367 0 15.7842 0 9.31569C0 4.17409 4.181 0 9.31569 0C11.5893 0 13.7593 0.843111 15.5285 2.39112C17.2976 0.843111 19.4676 0 21.7412 0C26.8828 0 31.0569 4.181 31.0569 9.31569C31.0569 15.7842 24.8372 21.2367 19.6127 24.6783C18.4033 25.5145 17.3114 26.1917 16.5512 26.5787C16.2472 26.7722 15.8878 26.8621 15.5354 26.8621ZM9.3226 2.06631C5.32819 2.06631 2.07323 5.31437 2.07323 9.31569C2.07323 15.1553 8.65917 20.3591 12.5845 22.9437L13.5589 23.538C14.402 24.0563 15.0723 24.4641 15.5354 24.775L15.5907 24.7474C15.9085 24.5885 16.8208 24.0978 18.4655 22.9575C22.4116 20.3591 28.9975 15.1484 28.9975 9.31569C28.9975 5.32128 25.7425 2.06631 21.7481 2.06631C19.7233 2.06631 17.7814 2.94398 16.2886 4.53345L15.5354 5.34201L14.7821 4.53345C13.2825 2.94398 11.3475 2.06631 9.3226 2.06631Z" fill="#090909"/>
</svg>
