<svg width="15" height="15" viewBox="0 0 15 15" fill="none" xmlns="http://www.w3.org/2000/svg">
<path d="M0 6.75135C0 6.43029 0 6.11222 0 5.79116C0.0498047 5.4881 0.0878906 5.18204 0.149414 4.87898C0.644531 2.4965 2.63086 0.534107 4.96289 0.123025C5.25879 0.0720144 5.56055 0.0420084 5.85938 0C6.02637 0 6.19043 0 6.35742 0C6.41016 0.0090018 6.46289 0.0210042 6.51562 0.0270054C6.7998 0.0660132 7.08691 0.0870174 7.36816 0.15003C11.1006 0.963193 13.1982 5.026 11.7422 8.64173C11.5752 9.05881 11.3438 9.44889 11.1357 9.86897C11.1533 9.88698 11.1914 9.92298 11.2295 9.95899C12.2959 10.9402 13.3594 11.9274 14.4316 12.9026C14.6836 13.1306 14.9092 13.3677 15 13.7127C15 13.8418 15 13.9738 15 14.1028C14.9883 14.1388 14.9736 14.1778 14.9619 14.2138C14.8447 14.5769 14.6162 14.829 14.2529 14.943C14.1885 14.964 14.124 14.982 14.0596 15C13.9805 15 13.9043 15 13.8252 15C13.6055 14.934 13.3945 14.859 13.2188 14.6969C12.0527 13.6167 10.8809 12.5425 9.71484 11.4653C9.6416 11.3963 9.59473 11.3843 9.50684 11.4443C8.04785 12.4255 6.46289 12.7285 4.75781 12.3565C2.44629 11.8524 0.544922 9.85397 0.117188 7.48049C0.0732422 7.24045 0.0380859 6.9974 0 6.75135ZM1.37402 6.26525C1.37402 8.94179 3.48633 11.1022 6.10254 11.1052C8.71289 11.1052 10.8369 8.93579 10.8369 6.26525C10.8369 3.58872 8.70996 1.41328 6.09375 1.41328C3.48926 1.41328 1.37402 3.58872 1.37402 6.26525Z" fill="#717579"/>
</svg>
