<svg width="21" height="20" viewBox="0 0 21 20" fill="none" xmlns="http://www.w3.org/2000/svg">
<path fill-rule="evenodd" clip-rule="evenodd" d="M3.02499 16.8063C2.85095 16.8063 2.68403 16.7371 2.56096 16.6141C2.43788 16.491 2.36874 16.3241 2.36874 16.15V3.02502C2.36874 2.85098 2.43788 2.68406 2.56096 2.56099C2.68403 2.43792 2.85095 2.36877 3.02499 2.36877H15.1656C15.4267 2.36877 15.6771 2.26506 15.8617 2.08046C16.0463 1.89585 16.15 1.64547 16.15 1.3844C16.15 1.12333 16.0463 0.872947 15.8617 0.688341C15.6771 0.503735 15.4267 0.400024 15.1656 0.400024H3.02499C2.3288 0.400024 1.66112 0.676586 1.16884 1.16887C0.676556 1.66115 0.399994 2.32883 0.399994 3.02502V16.15C0.399994 16.8462 0.676556 17.5139 1.16884 18.0062C1.66112 18.4985 2.3288 18.775 3.02499 18.775H16.15C16.8462 18.775 17.5139 18.4985 18.0061 18.0062C18.4984 17.5139 18.775 16.8462 18.775 16.15V11.8844C18.775 11.6233 18.6713 11.3729 18.4867 11.1883C18.3021 11.0037 18.0517 10.9 17.7906 10.9C17.5295 10.9 17.2792 11.0037 17.0946 11.1883C16.91 11.3729 16.8062 11.6233 16.8062 11.8844V16.15C16.8062 16.3241 16.7371 16.491 16.614 16.6141C16.491 16.7371 16.324 16.8063 16.15 16.8063H3.02499ZM19.7987 5.23002C19.9726 5.04342 20.0673 4.79661 20.0628 4.54159C20.0583 4.28657 19.955 4.04325 19.7746 3.8629C19.5943 3.68254 19.351 3.57923 19.0959 3.57473C18.8409 3.57023 18.5941 3.66489 18.4075 3.83877L11.1126 11.1323L8.65431 8.59134C8.56462 8.49762 8.45728 8.42255 8.33848 8.37045C8.21968 8.31835 8.09176 8.29025 7.96206 8.28775C7.83236 8.28526 7.70345 8.30842 7.58274 8.35592C7.46202 8.40341 7.35188 8.4743 7.25866 8.5645C7.16543 8.6547 7.09095 8.76244 7.0395 8.88152C6.98805 9.0006 6.96064 9.12868 6.95885 9.25839C6.95707 9.3881 6.98093 9.51688 7.02909 9.63734C7.07724 9.75779 7.14872 9.86754 7.23943 9.96027L10.3934 13.2205C10.4841 13.3146 10.5927 13.3897 10.7128 13.4414C10.8329 13.4931 10.9621 13.5204 11.0928 13.5216C11.2235 13.5228 11.3532 13.498 11.4742 13.4486C11.5953 13.3991 11.7053 13.3261 11.7977 13.2336L19.7987 5.23002Z" fill="#4E5354" stroke="#EEF2F5" stroke-width="0.8"/>
</svg>
