<svg width="20" height="21" viewBox="0 0 20 21" fill="none" xmlns="http://www.w3.org/2000/svg">
<path d="M4.0425 17.3311C1.59806 15.6047 0 12.7569 0 9.53639C0 7.85889 0.433889 6.27917 1.19472 4.91028C1.16722 4.88889 1.14278 4.86139 1.11833 4.83389L0.559167 4.14028C-0.336111 3.025 -0.131389 1.40861 1.0175 0.537778C2.15722 -0.323889 3.79806 -0.128333 4.69028 0.977778L4.87972 1.21306C6.25472 0.443056 7.84361 0 9.53639 0C11.2292 0 12.8181 0.44 14.1931 1.21306L14.3825 0.977778C15.2747 -0.128333 16.9156 -0.323889 18.0553 0.537778C19.2042 1.40861 19.4089 3.02194 18.5075 4.13722L17.9514 4.83389C17.9269 4.86139 17.9025 4.88889 17.875 4.91028C18.6358 6.27917 19.0697 7.85889 19.0697 9.53639C19.0697 12.7569 17.4717 15.6047 15.0272 17.3311L16.9156 19.2194C17.1111 19.415 17.1111 19.7328 16.9156 19.9283C16.72 20.1239 16.4022 20.1239 16.2067 19.9283L14.1992 17.9208C14.1839 17.9056 14.1717 17.8933 14.1594 17.8781C12.7906 18.6389 11.2139 19.0728 9.53639 19.0728C7.85889 19.0728 6.28222 18.6389 4.91333 17.8781C4.90111 17.8933 4.88889 17.9086 4.87361 17.9208L2.86611 19.9283C2.67056 20.1239 2.35278 20.1239 2.15722 19.9283C1.96167 19.7328 1.96167 19.415 2.15722 19.2194L4.0425 17.3311ZM17.3158 4.02111L17.7283 3.50778C18.2722 2.83556 18.15 1.86694 17.4503 1.33833C16.7414 0.803611 15.7178 0.925833 15.1647 1.60722L15.0456 1.75389C15.9256 2.37722 16.6925 3.14417 17.3158 4.02111ZM1.75694 4.02111C2.38028 3.14417 3.14722 2.37722 4.02417 1.75389L3.905 1.60722C3.355 0.922778 2.32833 0.803611 1.61944 1.33833C0.919722 1.86694 0.7975 2.83556 1.34139 3.50778L1.75694 4.02111ZM9.53639 18.0675C14.2481 18.0675 18.0675 14.2481 18.0675 9.53639C18.0675 4.82472 14.2481 1.00528 9.53639 1.00528C4.82472 1.00528 1.00528 4.82472 1.00528 9.53639C1.00528 14.2481 4.82472 18.0675 9.53639 18.0675Z" fill="#4E5354"/>
</svg>
