<svg width="19" height="18" viewBox="0 0 19 18" fill="none" xmlns="http://www.w3.org/2000/svg">
<path d="M4.48292 0.898333V0.449167C4.48292 0.20125 4.68417 0 4.93208 0C5.18 0 5.38125 0.20125 5.38125 0.449167V0.898333H13.4546V0.449167C13.4546 0.20125 13.6558 0 13.9037 0C14.1517 0 14.3529 0.20125 14.3529 0.449167V0.898333H17.4913C18.235 0.898333 18.8358 1.50208 18.8358 2.24292V13.9037C18.8358 16.1321 17.0275 17.9404 14.7992 17.9404H4.03667C1.80833 17.9404 0 16.1321 0 13.9037V2.24292C0 1.49917 0.60375 0.898333 1.34458 0.898333H4.48292ZM4.48292 1.79375H1.34167C1.09375 1.79375 0.8925 1.995 0.8925 2.24292V4.48583H17.9346V2.24292C17.9346 1.995 17.7333 1.79375 17.4854 1.79375H14.35V2.24292C14.35 2.49083 14.1488 2.69208 13.9008 2.69208C13.6529 2.69208 13.4517 2.49083 13.4517 2.24292V1.79375H5.37833V2.24292C5.37833 2.49083 5.17708 2.69208 4.92917 2.69208C4.68125 2.69208 4.48 2.49083 4.48 2.24292V1.79375H4.48292ZM0.895417 5.38417V13.9067C0.895417 15.6392 2.30125 17.045 4.03375 17.045H14.7963C16.5288 17.045 17.9346 15.6392 17.9346 13.9067V5.38417H0.895417Z" fill="#4E5354"/>
</svg>
