<svg width="19" height="20" viewBox="0 0 19 20" fill="none" xmlns="http://www.w3.org/2000/svg">
<path d="M7.17104 19.219H11.552M9.36151 1.69521V0.599976M14.8377 3.88569L15.9329 2.79045M3.88532 3.88569L2.79009 2.79045M14.8377 13.7428L15.9329 14.8381M3.88532 13.7428L2.79009 14.8381M1.69485 8.26664H0.599609M18.1234 8.26664H17.0282M9.36151 4.43331C10.4735 4.43263 11.5531 4.80802 12.4248 5.49848C13.2964 6.18894 13.909 7.15389 14.1629 8.23652C14.4168 9.31915 14.2971 10.4558 13.8233 11.4619C13.3495 12.4679 12.5494 13.2841 11.5531 13.7779L11.552 14.8381C11.552 15.419 11.3212 15.9762 10.9104 16.387C10.4996 16.7978 9.94246 17.0285 9.36151 17.0285C8.78056 17.0285 8.22341 16.7978 7.81261 16.387C7.40182 15.9762 7.17104 15.419 7.17104 14.8381V13.7779C6.17476 13.2841 5.37472 12.468 4.9009 11.4621C4.42708 10.4562 4.30732 9.31962 4.56109 8.23706C4.81486 7.15449 5.42723 6.18954 6.29872 5.49899C7.17021 4.80844 8.2496 4.43287 9.36151 4.43331Z" stroke="#222528" stroke-width="1.2" stroke-linecap="round" stroke-linejoin="round"/>
</svg>
