<svg width="52" height="52" viewBox="0 0 52 52" fill="none" xmlns="http://www.w3.org/2000/svg">
<path d="M3.25 2.02539H48.75C49.0749 2.02539 49.3865 2.15406 49.6162 2.38379C49.8459 2.61352 49.9746 2.92511 49.9746 3.25V35.75C49.9746 36.0749 49.8459 36.3865 49.6162 36.6162C49.3865 36.8459 49.0749 36.9746 48.75 36.9746H3.25C2.92511 36.9746 2.61352 36.8459 2.38379 36.6162C2.15406 36.3865 2.02539 36.0749 2.02539 35.75V3.25C2.02539 2.92511 2.15406 2.61352 2.38379 2.38379C2.61352 2.15406 2.92511 2.02539 3.25 2.02539ZM4.47461 34.5254H19.0879V33.3125C19.0879 32.1597 19.3769 31.0253 19.9297 30.0137C20.4825 29.002 21.2808 28.1452 22.251 27.5225L22.6055 27.2959L22.3604 26.9531C21.8222 26.2007 21.5306 25.3001 21.5254 24.375C21.5254 23.1882 21.9967 22.0502 22.8359 21.2109C23.6752 20.3717 24.8132 19.9004 26 19.9004C27.1868 19.9004 28.3248 20.3717 29.1641 21.2109C30.0033 22.0502 30.4746 23.1882 30.4746 24.375C30.4694 25.3001 30.1778 26.2007 29.6396 26.9531L29.3945 27.2959L29.749 27.5225C30.7192 28.1452 31.5175 29.002 32.0703 30.0137C32.6231 31.0253 32.9121 32.1597 32.9121 33.3125V34.5254H47.5254V14.2246H4.47461V34.5254ZM26 28.8496C24.8165 28.8496 23.6816 29.3203 22.8447 30.1572C22.0078 30.9941 21.5371 32.129 21.5371 33.3125V34.5254H30.4629V33.3125C30.4629 32.129 29.9922 30.9941 29.1553 30.1572C28.3184 29.3203 27.1835 28.8496 26 28.8496ZM26.3955 22.3887C26.0027 22.3105 25.5946 22.3506 25.2246 22.5039C24.8547 22.6572 24.5389 22.9171 24.3164 23.25C24.0939 23.583 23.9746 23.9745 23.9746 24.375C23.9746 24.9121 24.1886 25.4269 24.5684 25.8066C24.9481 26.1864 25.4629 26.4004 26 26.4004C26.4005 26.4004 26.792 26.2811 27.125 26.0586C27.4579 25.8361 27.7178 25.5203 27.8711 25.1504C28.0244 24.7804 28.0645 24.3723 27.9863 23.9795C27.9081 23.5868 27.7148 23.2265 27.4316 22.9434C27.1485 22.6603 26.7882 22.4669 26.3955 22.3887ZM4.47461 11.7754H47.5254V4.47461H4.47461V11.7754Z" fill="black" stroke="#99CDFF" stroke-width="0.8"/>
<path d="M36.9746 6.90039V9.34961H32.9004V6.90039H36.9746Z" fill="black" stroke="#99CDFF" stroke-width="0.8"/>
<path d="M45.0996 6.90039V9.34961H41.0254V6.90039H45.0996Z" fill="black" stroke="#99CDFF" stroke-width="0.8"/>
<path d="M11.375 39.4004H16.25C16.5749 39.4004 16.8865 39.5291 17.1162 39.7588C17.3459 39.9885 17.4746 40.3001 17.4746 40.625V43.4629H49.9746V45.9121H17.4746V48.75C17.4746 49.0749 17.3459 49.3865 17.1162 49.6162C16.8865 49.8459 16.5749 49.9746 16.25 49.9746H11.375C11.0501 49.9746 10.7385 49.8459 10.5088 49.6162C10.2791 49.3865 10.1504 49.0749 10.1504 48.75V45.9121H2.02539V43.4629H10.1504V40.625C10.1504 40.3001 10.2791 39.9885 10.5088 39.7588C10.7385 39.5291 11.0501 39.4004 11.375 39.4004ZM12.5996 47.5254H15.0254V41.8496H12.5996V47.5254Z" fill="black" stroke="#99CDFF" stroke-width="0.8"/>
<path d="M43.4746 18.2754V20.7246H36.1504V18.2754H43.4746Z" fill="black" stroke="#99CDFF" stroke-width="0.8"/>
<path d="M15.8496 18.2754V20.7246H8.52539V18.2754H15.8496Z" fill="black" stroke="#99CDFF" stroke-width="0.8"/>
</svg>
