<svg width="54" height="54" viewBox="0 0 54 54" fill="none" xmlns="http://www.w3.org/2000/svg">
<mask id="path-1-inside-1_134_2224" fill="white">
<path d="M50.625 1.6875H3.375C2.92745 1.6875 2.49822 1.86529 2.18176 2.18176C1.86529 2.49822 1.6875 2.92745 1.6875 3.375V50.625C1.6875 51.0726 1.86529 51.5018 2.18176 51.8182C2.49822 52.1347 2.92745 52.3125 3.375 52.3125H50.625C51.0726 52.3125 51.5018 52.1347 51.8182 51.8182C52.1347 51.5018 52.3125 51.0726 52.3125 50.625V3.375C52.3125 2.92745 52.1347 2.49822 51.8182 2.18176C51.5018 1.86529 51.0726 1.6875 50.625 1.6875ZM48.9375 5.0625V11.8125H5.0625V5.0625H48.9375ZM20.25 25.3125C19.8024 25.3125 19.3732 25.1347 19.0568 24.8182C18.7403 24.5018 18.5625 24.0726 18.5625 23.625V15.1875H35.4375V23.625C35.4375 24.0726 35.2597 24.5018 34.9432 24.8182C34.6268 25.1347 34.1976 25.3125 33.75 25.3125H20.25ZM5.0625 15.1875H15.1875V23.625C15.1875 24.9677 15.7209 26.2553 16.6703 27.2047C17.6197 28.1541 18.9073 28.6875 20.25 28.6875H25.3125V48.9375H22.7812V46.4062C22.7812 45.1395 22.4629 43.8931 21.8554 42.7814C21.248 41.6698 20.371 40.7286 19.305 40.0444C19.9144 39.1924 20.2446 38.1725 20.25 37.125C20.25 35.7823 19.7166 34.4947 18.7672 33.5453C17.8178 32.5959 16.5302 32.0625 15.1875 32.0625C13.8448 32.0625 12.5572 32.5959 11.6078 33.5453C10.6584 34.4947 10.125 35.7823 10.125 37.125C10.1304 38.1725 10.4606 39.1924 11.07 40.0444C10.004 40.7286 9.12696 41.6698 8.51955 42.7814C7.91214 43.8931 7.59379 45.1395 7.59375 46.4062V48.9375H5.0625V15.1875ZM13.5 37.125C13.5 36.7912 13.599 36.465 13.7844 36.1875C13.9698 35.91 14.2334 35.6937 14.5417 35.566C14.8501 35.4382 15.1894 35.4048 15.5167 35.4699C15.8441 35.535 16.1447 35.6958 16.3807 35.9318C16.6167 36.1678 16.7775 36.4684 16.8426 36.7958C16.9077 37.1231 16.8743 37.4624 16.7465 37.7708C16.6188 38.0791 16.4025 38.3427 16.125 38.5281C15.8475 38.7135 15.5213 38.8125 15.1875 38.8125C14.7399 38.8125 14.3107 38.6347 13.9943 38.3182C13.6778 38.0018 13.5 37.5726 13.5 37.125ZM15.1875 42.1875C15.7415 42.1875 16.2901 42.2966 16.8019 42.5086C17.3138 42.7206 17.7789 43.0314 18.1706 43.4231C18.5624 43.8149 18.8731 44.28 19.0851 44.7918C19.2971 45.3036 19.4062 45.8522 19.4062 46.4062V48.9375H10.9688V46.4062C10.9688 45.2874 11.4132 44.2143 12.2044 43.4231C12.9956 42.632 14.0686 42.1875 15.1875 42.1875ZM37.125 37.125C37.125 36.7912 37.224 36.465 37.4094 36.1875C37.5948 35.91 37.8584 35.6937 38.1667 35.566C38.4751 35.4382 38.8144 35.4048 39.1417 35.4699C39.4691 35.535 39.7697 35.6958 40.0057 35.9318C40.2417 36.1678 40.4025 36.4684 40.4676 36.7958C40.5327 37.1231 40.4993 37.4624 40.3715 37.7708C40.2438 38.0791 40.0275 38.3427 39.75 38.5281C39.4725 38.7135 39.1463 38.8125 38.8125 38.8125C38.3649 38.8125 37.9357 38.6347 37.6193 38.3182C37.3028 38.0018 37.125 37.5726 37.125 37.125ZM38.8125 42.1875C39.9314 42.1875 41.0044 42.632 41.7956 43.4231C42.5868 44.2143 43.0312 45.2874 43.0312 46.4062V48.9375H34.5938V46.4062C34.5938 45.2874 35.0382 44.2143 35.8294 43.4231C36.6206 42.632 37.6936 42.1875 38.8125 42.1875ZM46.4062 48.9375V46.4062C46.4062 45.1395 46.0879 43.8931 45.4804 42.7814C44.873 41.6698 43.996 40.7286 42.93 40.0444C43.5394 39.1924 43.8696 38.1725 43.875 37.125C43.875 35.7823 43.3416 34.4947 42.3922 33.5453C41.4428 32.5959 40.1552 32.0625 38.8125 32.0625C37.4698 32.0625 36.1822 32.5959 35.2328 33.5453C34.2834 34.4947 33.75 35.7823 33.75 37.125C33.7554 38.1725 34.0856 39.1924 34.695 40.0444C33.629 40.7286 32.752 41.6698 32.1446 42.7814C31.5371 43.8931 31.2188 45.1395 31.2188 46.4062V48.9375H28.6875V28.6875H33.75C35.0927 28.6875 36.3803 28.1541 37.3297 27.2047C38.2791 26.2553 38.8125 24.9677 38.8125 23.625V15.1875H48.9375V48.9375H46.4062Z"/>
</mask>
<path d="M50.625 1.6875H3.375C2.92745 1.6875 2.49822 1.86529 2.18176 2.18176C1.86529 2.49822 1.6875 2.92745 1.6875 3.375V50.625C1.6875 51.0726 1.86529 51.5018 2.18176 51.8182C2.49822 52.1347 2.92745 52.3125 3.375 52.3125H50.625C51.0726 52.3125 51.5018 52.1347 51.8182 51.8182C52.1347 51.5018 52.3125 51.0726 52.3125 50.625V3.375C52.3125 2.92745 52.1347 2.49822 51.8182 2.18176C51.5018 1.86529 51.0726 1.6875 50.625 1.6875ZM48.9375 5.0625V11.8125H5.0625V5.0625H48.9375ZM20.25 25.3125C19.8024 25.3125 19.3732 25.1347 19.0568 24.8182C18.7403 24.5018 18.5625 24.0726 18.5625 23.625V15.1875H35.4375V23.625C35.4375 24.0726 35.2597 24.5018 34.9432 24.8182C34.6268 25.1347 34.1976 25.3125 33.75 25.3125H20.25ZM5.0625 15.1875H15.1875V23.625C15.1875 24.9677 15.7209 26.2553 16.6703 27.2047C17.6197 28.1541 18.9073 28.6875 20.25 28.6875H25.3125V48.9375H22.7812V46.4062C22.7812 45.1395 22.4629 43.8931 21.8554 42.7814C21.248 41.6698 20.371 40.7286 19.305 40.0444C19.9144 39.1924 20.2446 38.1725 20.25 37.125C20.25 35.7823 19.7166 34.4947 18.7672 33.5453C17.8178 32.5959 16.5302 32.0625 15.1875 32.0625C13.8448 32.0625 12.5572 32.5959 11.6078 33.5453C10.6584 34.4947 10.125 35.7823 10.125 37.125C10.1304 38.1725 10.4606 39.1924 11.07 40.0444C10.004 40.7286 9.12696 41.6698 8.51955 42.7814C7.91214 43.8931 7.59379 45.1395 7.59375 46.4062V48.9375H5.0625V15.1875ZM13.5 37.125C13.5 36.7912 13.599 36.465 13.7844 36.1875C13.9698 35.91 14.2334 35.6937 14.5417 35.566C14.8501 35.4382 15.1894 35.4048 15.5167 35.4699C15.8441 35.535 16.1447 35.6958 16.3807 35.9318C16.6167 36.1678 16.7775 36.4684 16.8426 36.7958C16.9077 37.1231 16.8743 37.4624 16.7465 37.7708C16.6188 38.0791 16.4025 38.3427 16.125 38.5281C15.8475 38.7135 15.5213 38.8125 15.1875 38.8125C14.7399 38.8125 14.3107 38.6347 13.9943 38.3182C13.6778 38.0018 13.5 37.5726 13.5 37.125ZM15.1875 42.1875C15.7415 42.1875 16.2901 42.2966 16.8019 42.5086C17.3138 42.7206 17.7789 43.0314 18.1706 43.4231C18.5624 43.8149 18.8731 44.28 19.0851 44.7918C19.2971 45.3036 19.4062 45.8522 19.4062 46.4062V48.9375H10.9688V46.4062C10.9688 45.2874 11.4132 44.2143 12.2044 43.4231C12.9956 42.632 14.0686 42.1875 15.1875 42.1875ZM37.125 37.125C37.125 36.7912 37.224 36.465 37.4094 36.1875C37.5948 35.91 37.8584 35.6937 38.1667 35.566C38.4751 35.4382 38.8144 35.4048 39.1417 35.4699C39.4691 35.535 39.7697 35.6958 40.0057 35.9318C40.2417 36.1678 40.4025 36.4684 40.4676 36.7958C40.5327 37.1231 40.4993 37.4624 40.3715 37.7708C40.2438 38.0791 40.0275 38.3427 39.75 38.5281C39.4725 38.7135 39.1463 38.8125 38.8125 38.8125C38.3649 38.8125 37.9357 38.6347 37.6193 38.3182C37.3028 38.0018 37.125 37.5726 37.125 37.125ZM38.8125 42.1875C39.9314 42.1875 41.0044 42.632 41.7956 43.4231C42.5868 44.2143 43.0312 45.2874 43.0312 46.4062V48.9375H34.5938V46.4062C34.5938 45.2874 35.0382 44.2143 35.8294 43.4231C36.6206 42.632 37.6936 42.1875 38.8125 42.1875ZM46.4062 48.9375V46.4062C46.4062 45.1395 46.0879 43.8931 45.4804 42.7814C44.873 41.6698 43.996 40.7286 42.93 40.0444C43.5394 39.1924 43.8696 38.1725 43.875 37.125C43.875 35.7823 43.3416 34.4947 42.3922 33.5453C41.4428 32.5959 40.1552 32.0625 38.8125 32.0625C37.4698 32.0625 36.1822 32.5959 35.2328 33.5453C34.2834 34.4947 33.75 35.7823 33.75 37.125C33.7554 38.1725 34.0856 39.1924 34.695 40.0444C33.629 40.7286 32.752 41.6698 32.1446 42.7814C31.5371 43.8931 31.2188 45.1395 31.2188 46.4062V48.9375H28.6875V28.6875H33.75C35.0927 28.6875 36.3803 28.1541 37.3297 27.2047C38.2791 26.2553 38.8125 24.9677 38.8125 23.625V15.1875H48.9375V48.9375H46.4062Z" fill="black" stroke="#42FFF4" stroke-width="1.6" mask="url(#path-1-inside-1_134_2224)"/>
<path d="M38.4121 7.15039V9.72461H34.1504V7.15039H38.4121Z" fill="black" stroke="#42FFF4" stroke-width="0.8"/>
<path d="M46.8496 7.15039V9.72461H42.5879V7.15039H46.8496Z" fill="black" stroke="#42FFF4" stroke-width="0.8"/>
<path d="M31.6621 18.9629V21.5371H22.3379V18.9629H31.6621Z" fill="black" stroke="#42FFF4" stroke-width="0.8"/>
</svg>
