<svg width="34" height="46" viewBox="0 0 34 46" fill="none" xmlns="http://www.w3.org/2000/svg">
<path d="M0 5.0364V40.9219C0 43.7148 2.3698 46 5.28972 46H28.6491C31.569 46 33.9388 43.9264 33.9388 41.345V8.88731C33.9388 7.44851 33.1771 6.09436 31.9076 5.20569V5.07871C31.9076 2.28574 29.5378 0.000578432 26.6179 0.000578432H5.28972C2.3698 -0.0417393 0 2.24343 0 5.0364ZM1.69271 5.0364C1.69271 3.17442 3.30079 1.65098 5.28972 1.65098H26.5756C28.5645 1.65098 30.1726 3.17442 30.1726 5.0364V5.62886C30.1726 5.92509 30.3418 6.22129 30.5957 6.34824C31.6114 6.89838 32.2038 7.82939 32.2038 8.8027V41.2604C32.2038 42.9108 30.5957 44.2226 28.6068 44.2226H5.2474C3.25847 44.2226 1.65039 42.6992 1.65039 40.8372V5.0364H1.69271Z" fill="#272525"/>
</svg>
